<?xml version="1.0" encoding="UTF-8"?>
<svg version="1.1" xmlns="http://www.w3.org/2000/svg" width="4000" height="4000">
<path d="M0 0 C1320 0 2640 0 4000 0 C4000 1320 4000 2640 4000 4000 C2680 4000 1360 4000 0 4000 C0 2680 0 1360 0 0 Z " fill="#FEFEFE" transform="translate(0,0)"/>
<path d="M0 0 C2.9700505 2.75003208 4.89445143 5.30646947 6.734375 8.90234375 C9.96295613 15.0101144 13.52706604 20.88529327 17.14562988 26.7663269 C22.77108101 35.9156907 28.27036496 45.10270298 33.39355469 54.54516602 C37.0666742 61.25615131 41.12326304 67.71008669 45.18676758 74.18969727 C48.60533068 79.66854388 51.85092111 85.20307607 54.9375 90.875 C59.26950309 98.83303035 63.94737543 106.54984775 68.69165039 114.26782227 C72.54213116 120.55117059 76.25881625 126.89181556 79.875 133.3125 C85.15424553 142.6844006 90.76447898 151.83584327 96.48193359 160.94458008 C99.88261252 166.39783292 102.99239222 171.84738026 105.79467773 177.62915039 C107.86855743 181.70843857 110.353902 185.51982011 112.8125 189.375 C118.10609546 197.79077402 123.10882958 206.3471245 128 215 C133.31772751 224.40543184 138.77085321 233.69823014 144.57617188 242.81445312 C147.34797153 247.1966424 149.90543696 251.63325837 152.3359375 256.21484375 C156.13800333 263.36126619 160.31655134 270.23769273 164.5625 277.125 C169.03778383 284.39252118 173.40974478 291.67053877 177.44702148 299.19433594 C180.18786211 304.14603228 183.18036523 308.94706105 186.14562988 313.7663269 C191.34967122 322.23030007 196.50883748 330.70266911 201.25 339.4375 C205.21913725 346.74893558 209.55130736 353.7888276 213.97363281 360.83374023 C218.58688963 368.22748864 222.86931046 375.7795886 227.11108398 383.39086914 C231.33149724 390.92153549 235.79160688 398.27633516 240.42382812 405.56054688 C243.25292957 410.04087484 245.87519371 414.57228877 248.359375 419.25390625 C251.7675711 425.66150243 255.4724065 431.85414509 259.27709961 438.02954102 C269.1399642 454.04655239 269.1399642 454.04655239 273.5 462 C278.32886322 470.80694424 283.62963235 479.33713582 288.88671875 487.89257812 C292.04128603 493.03841708 295.14835816 498.18839798 298.00390625 503.5078125 C301.1647356 509.39554774 304.64504923 515.07704422 308.14562988 520.7663269 C313.77108101 529.9156907 319.27036496 539.10270298 324.39355469 548.54516602 C328.06461835 555.25239516 332.11842298 561.70304227 336.18017578 568.17871094 C340.11116568 574.47803241 343.77694458 580.87963905 347.32983398 587.39794922 C350.68786684 593.52634217 354.30200935 599.47196916 357.97851562 605.41333008 C360.81179861 610.00847399 363.52088582 614.64677255 366.125 619.375 C370.3040008 626.94382988 374.80415538 634.31219242 379.3125 641.6875 C384.82146673 650.70062853 390.20691508 659.76421103 395.390625 668.96948242 C400.37110586 677.76081146 405.64989466 686.37036358 410.95117188 694.97070312 C414.97487443 701.53249191 418.74082831 708.16957049 422.34936523 714.96777344 C424.75700451 719.39062209 427.42384844 723.62741363 430.125 727.875 C434.79277921 735.30766585 439.22752414 742.83362833 443.5 750.5 C447.71439831 758.06020933 452.08564135 765.48158497 456.6875 772.8125 C460.98683327 779.66242477 465.04469662 786.57841278 468.90209961 793.68505859 C473.6239734 802.29170817 478.79331498 810.63348503 483.93652344 818.99243164 C487.60886283 824.97368591 491.12079201 830.99925847 494.44042969 837.18334961 C497.18403898 842.13842482 500.17811243 846.9433997 503.14562988 851.7663269 C508.77108101 860.9156907 514.27036496 870.10270298 519.39355469 879.54516602 C522.55873611 885.32812132 525.99843187 890.91546329 529.5 896.5 C533.42962079 902.76722393 537.22200683 909.06051471 540.75 915.5625 C545.10022247 923.5732196 549.80687982 931.35137534 554.5625 939.125 C559.38129849 947.00341061 564.15677501 954.88398172 568.60961914 962.97705078 C572.70076586 970.36278595 577.11788746 977.55514885 581.48168945 984.78173828 C585.39601283 991.27978161 589.19358913 997.82200924 592.86157227 1004.46142578 C595.40550751 1009.03176389 598.1322959 1013.46096848 600.9375 1017.875 C604.36945095 1023.27669513 607.57023085 1028.75189394 610.625 1034.375 C615.14064282 1042.67307796 620.07357662 1050.68483204 625.06088257 1058.70629883 C629.60126908 1066.01663965 633.95888226 1073.37055091 638.05371094 1080.93774414 C642.71627874 1089.46482613 647.84557032 1097.71846067 652.93725586 1105.99365234 C656.6137957 1111.98171199 660.12990676 1118.01431389 663.45361328 1124.20532227 C666.13850012 1129.0575325 669.06853792 1133.76039524 671.97506714 1138.48205566 C678.38765512 1148.90761755 684.57409113 1159.42742601 690.53735352 1170.11816406 C693.91990148 1176.15877025 697.4722699 1182.04482769 701.19970703 1187.87719727 C705.38307673 1194.48256196 709.14980373 1201.31285619 712.95947266 1208.13818359 C717.23363485 1215.75078925 721.73831997 1223.19268071 726.4230957 1230.55932617 C729.24523395 1235.0287407 731.86217581 1239.54835833 734.33984375 1244.21875 C738.18335651 1251.44518928 742.40399325 1258.40481334 746.6875 1265.375 C747.44109544 1266.6052604 748.19435173 1267.83572863 748.94726562 1269.06640625 C749.49569626 1269.96277802 749.49569626 1269.96277802 750.0552063 1270.8772583 C751.10138048 1272.59056446 752.1432952 1274.30646926 753.18505859 1276.02246094 C754.2562314 1277.77979529 755.33812417 1279.53079892 756.44384766 1281.26660156 C759.07251809 1285.50450096 759.07251809 1285.50450096 758.71386719 1287.95507812 C757.9903374 1290.02767919 757.12802274 1291.73843172 755.99609375 1293.6171875 C755.58979736 1294.29845703 755.18350098 1294.97972656 754.76489258 1295.68164062 C754.32685303 1296.40544922 753.88881348 1297.12925781 753.4375 1297.875 C752.51224701 1299.42401721 751.58777621 1300.97350189 750.6640625 1302.5234375 C749.97812012 1303.67150879 749.97812012 1303.67150879 749.27832031 1304.84277344 C747.58187227 1307.70561051 745.94562995 1310.60065476 744.3125 1313.5 C740.56845944 1320.08799864 736.66289186 1326.57363732 732.75 1333.0625 C727.39843169 1341.93742806 722.17592941 1350.87221448 717.06738281 1359.88891602 C713.86716493 1365.52405868 710.53497401 1371.04277823 707.1015625 1376.5390625 C704.4081907 1380.91611949 701.90610466 1385.40294462 699.375 1389.875 C695.05326444 1397.50418624 690.58801988 1405.02806388 686 1412.5 C680.97586931 1420.68484818 676.1252171 1428.94630709 671.39404297 1437.3034668 C667.58319306 1444.02080073 663.64027785 1450.64931014 659.64672852 1457.25927734 C655.01831504 1464.9334321 650.50839139 1472.67443078 646.00488281 1480.42236328 C642.49495064 1486.45512011 638.9392335 1492.45541433 635.32250977 1498.42456055 C632.20157706 1503.60369149 629.22837013 1508.86295689 626.25 1514.125 C622.11855547 1521.41858861 617.8266892 1528.58509174 613.375 1535.6875 C609.48771381 1541.89225058 605.74391286 1548.1279081 602.25 1554.5625 C597.89951207 1562.5730823 593.19317722 1570.35139281 588.4375 1578.125 C583.54282689 1586.12704632 578.69935935 1594.13617169 574.16625977 1602.35058594 C571.35240608 1607.43098701 568.38082375 1612.40610934 565.375 1617.375 C560.55953638 1625.33563902 555.88159246 1633.36858169 551.25 1641.4375 C546.93878152 1648.94703477 542.57706893 1656.39391547 537.984375 1663.734375 C535.4173118 1667.95891209 532.99515289 1672.25956444 530.5625 1676.5625 C525.6465487 1685.25011745 520.51796032 1693.79675744 515.3125 1702.3125 C510.4599638 1710.25213702 505.66253364 1718.20342173 501.16577148 1726.35131836 C497.88171597 1732.28114654 494.37520666 1738.06926923 490.86645508 1743.86816406 C486.60286657 1750.93908948 482.48006766 1758.08612297 478.375 1765.25 C473.90321082 1773.05040573 469.35106703 1780.76479567 464.51098633 1788.34179688 C460.85687836 1794.10957816 457.55966728 1800.06148532 454.30932617 1806.06445312 C452.40309446 1809.56860772 450.53774095 1812.89922327 448 1816 C444.52379583 1814.84126528 444.39968451 1814.43301938 442.79296875 1811.3359375 C442.37845459 1810.55524902 441.96394043 1809.77456055 441.53686523 1808.97021484 C441.09157471 1808.11379395 440.64628418 1807.25737305 440.1875 1806.375 C436.01027067 1798.54846026 431.59858251 1790.92311417 426.9375 1783.375 C422.30008679 1775.84875778 417.85517352 1768.26396784 413.62133789 1760.50439453 C410.3024475 1754.45603231 406.75587199 1748.56680824 403.10473633 1742.71362305 C400.02024916 1737.75007366 397.10383189 1732.70375191 394.21792603 1727.62226868 C390.55352194 1721.18550618 386.76017208 1714.82751451 382.96270752 1708.46865845 C377.09115487 1698.63442094 371.2560952 1688.78708652 365.625 1678.8125 C361.18981678 1670.95804797 356.49611924 1663.29313577 351.70678711 1655.65039062 C347.93150053 1649.59367245 344.4249036 1643.43818214 341.0234375 1637.16601562 C336.89560756 1629.64228725 332.34371948 1622.38578216 327.81057739 1615.1022644 C323.88528331 1608.78791772 320.02953837 1602.48684332 316.625 1595.875 C313.62122997 1590.04570564 310.27677487 1584.54480686 306.76220703 1579.01757812 C304.0329975 1574.70623311 301.46079811 1570.3442611 299 1565.875 C294.63238204 1557.96653513 289.97576051 1550.23602255 285.3125 1542.5 C279.09841459 1532.18940149 272.95680778 1521.8428658 266.91625977 1511.42919922 C263.25406838 1505.12384243 259.52437761 1498.86374579 255.75 1492.625 C251.64383574 1485.83336684 247.73437334 1478.96212068 243.92871094 1471.99853516 C239.90778427 1464.70642706 235.54364028 1457.63469581 231.18115234 1450.54345703 C227.1164629 1443.90937841 223.27284802 1437.1896874 219.54907227 1430.35986328 C216.46053583 1424.7322027 213.11737943 1419.3040759 209.67431641 1413.88793945 C206.84583834 1409.41624505 204.1887301 1404.87810723 201.625 1400.25 C195.94644219 1390.00316008 189.85288695 1380.00648576 183.78125 1369.98925781 C179.15115307 1362.34879404 174.6519375 1354.6495273 170.25 1346.875 C166.082567 1339.51499172 161.7445352 1332.28965294 157.25 1325.125 C153.29179163 1318.81168934 149.56890511 1312.49435506 146.15820312 1305.86816406 C142.57609747 1299.00920406 138.46399302 1292.47479736 134.41210938 1285.88671875 C130.51178095 1279.52847879 126.73204004 1273.11893623 123.0625 1266.625 C118.15980089 1257.95835652 113.07783641 1249.4113956 107.93359375 1240.88623047 C102.19859561 1231.3682944 96.57712017 1221.78627372 90.9855957 1212.18359375 C87.63997668 1206.45079744 84.25347211 1200.75153165 80.7578125 1195.109375 C77.98503366 1190.62826665 75.33798262 1186.12397643 72.8125 1181.5 C69.22744361 1175.01149053 65.37570148 1168.71695352 61.4375 1162.4375 C57.75026004 1156.55307992 54.17537083 1150.67699495 51 1144.5 C47.89840585 1138.47170116 44.41869571 1132.73943824 40.8125 1127 C36.16752407 1119.60683645 31.74989955 1112.12705188 27.5 1104.5 C22.78014737 1096.03290929 17.81530504 1087.767327 12.66186523 1079.55810547 C8.85401467 1073.46209073 5.31481226 1067.26447269 1.88037109 1060.95239258 C-2.14371245 1053.61421535 -6.52478106 1046.50577149 -10.90478516 1039.3762207 C-14.151779 1034.07726428 -17.31912147 1028.7584798 -20.3125 1023.3125 C-24.8073132 1015.14288805 -29.70737197 1007.22200636 -34.57229614 999.2701416 C-39.36596756 991.42748319 -44.00989982 983.53390717 -48.39428711 975.45361328 C-52.06416803 968.74817104 -56.1163824 962.29894474 -60.17797852 955.82568359 C-64.13187495 949.49127888 -67.8159316 943.05204013 -71.38037109 936.4921875 C-74.66542307 930.48739919 -78.23375435 924.69252613 -81.95385742 918.94799805 C-85 914.2021116 -85 914.2021116 -85 912 C-85.66 912 -86.32 912 -87 912 C-87.25910156 912.72574219 -87.51820313 913.45148437 -87.78515625 914.19921875 C-89.04843186 917.11165802 -90.52318257 919.2852826 -92.4375 921.8125 C-95.76484699 926.29276974 -98.97860279 930.82849962 -102.125 935.4375 C-106.33341289 941.59218364 -110.58996272 947.71092817 -114.875 953.8125 C-119.50402285 960.40696042 -124.08803822 967.029379 -128.625 973.6875 C-133.22551225 980.43816103 -137.89563881 987.13425876 -142.62158203 993.79760742 C-146.41325454 999.14985777 -150.13665325 1004.54601026 -153.84057617 1009.95922852 C-157.81756077 1015.76046522 -161.86830542 1021.50810789 -165.94140625 1027.2421875 C-166.87258317 1028.5549943 -167.79848766 1029.87156192 -168.71826172 1031.19238281 C-169.90498461 1032.86600116 -171.1552107 1034.49409746 -172.41015625 1036.1171875 C-174.23328581 1038.87431902 -174.23328581 1038.87431902 -174 1041.8984375 C-172.75895819 1045.74760623 -171.00778651 1049.13635557 -169 1052.625 C-168.56921143 1053.3878833 -168.13842285 1054.1507666 -167.69458008 1054.93676758 C-163.15448165 1062.89146804 -158.35648032 1070.69340597 -153.57528687 1078.50454712 C-148.10776547 1087.43849653 -142.85244994 1096.46240679 -137.75170898 1105.61230469 C-133.34184705 1113.48671314 -128.67085928 1121.18418501 -123.94628906 1128.87280273 C-120.71003467 1134.15184096 -117.55583233 1139.4546607 -114.5625 1144.875 C-110.82588721 1151.63955763 -106.8695191 1158.25984044 -102.875 1164.875 C-96.83625501 1174.87590737 -90.95970307 1184.9552334 -85.14746094 1195.08886719 C-81.46898423 1201.49054969 -77.70044161 1207.8069373 -73.78515625 1214.06640625 C-71.78689675 1217.35019812 -69.92063978 1220.6985296 -68.0625 1224.0625 C-63.74740976 1231.86734709 -59.09334679 1239.45863723 -54.4375 1247.0625 C-49.19783484 1255.62093444 -44.10455946 1264.19518159 -39.515625 1273.125 C-38.12469646 1275.76346238 -36.62451113 1278.25075211 -35 1280.75 C-33 1284 -33 1284 -33 1287 C-271.92 1287 -510.84 1287 -757 1287 C-755.57276207 1282.7182862 -754.50558335 1279.84263891 -752.27734375 1276.12890625 C-751.74359131 1275.23292725 -751.20983887 1274.33694824 -750.65991211 1273.41381836 C-750.09151611 1272.4728833 -749.52312012 1271.53194824 -748.9375 1270.5625 C-748.0568689 1269.08825562 -748.0568689 1269.08825562 -747.15844727 1267.58422852 C-744.63822328 1263.36936521 -742.10028965 1259.16523799 -739.5625 1254.9609375 C-738.85402411 1253.78654432 -738.14568576 1252.61206815 -737.4375 1251.4375 C-737.0878418 1250.85838867 -736.73818359 1250.27927734 -736.37792969 1249.68261719 C-733.22939702 1244.44075115 -730.20761184 1239.12911493 -727.1875 1233.8125 C-722.71140195 1225.93299937 -718.11591946 1218.13666668 -713.43041992 1210.38012695 C-710.05774383 1204.7883389 -706.75634135 1199.16024958 -703.5 1193.5 C-699.75890382 1186.99713811 -695.94171084 1180.54639078 -692.0625 1174.125 C-687.95654309 1167.32808858 -683.97054789 1160.47496005 -680.0625 1153.5625 C-675.99496007 1146.37204002 -671.7617705 1139.31256999 -667.375 1132.3125 C-663.48776763 1126.10771505 -659.74391448 1119.87209488 -656.25 1113.4375 C-651.89951207 1105.4269177 -647.19317722 1097.64860719 -642.4375 1089.875 C-637.5450921 1081.87665695 -632.70206302 1073.87204821 -628.17285156 1065.66040039 C-624.82127407 1059.60679464 -621.23689389 1053.6999603 -617.65551758 1047.78027344 C-613.96346952 1041.65744687 -610.39618 1035.47241351 -606.875 1029.25 C-603.40220278 1023.11755651 -599.85127054 1017.06747645 -596.0625 1011.125 C-591.38281844 1003.78190785 -587.13372399 996.22002128 -582.88256836 988.62280273 C-579.57715087 982.73537562 -576.18331357 976.92534692 -572.625 971.1875 C-567.43743547 962.81996608 -562.53151027 954.30076294 -557.63305664 945.76147461 C-553.19680103 938.04031911 -548.66442544 930.38476022 -544.06005859 922.76293945 C-541.37493404 918.31181166 -538.74437136 913.83914993 -536.1875 909.3125 C-532.49229739 902.78251617 -528.62506015 896.36210714 -524.75 889.9375 C-520.02139942 882.09740894 -515.37693068 874.22238914 -510.875 866.25 C-506.87143827 859.16263189 -502.69682083 852.21025723 -498.375 845.3125 C-494.01031619 838.3443655 -489.87962648 831.3061406 -485.9465332 824.08691406 C-481.71367117 816.36930803 -477.1542986 808.85436852 -472.60473633 801.32055664 C-468.77758243 794.97773912 -465.0033385 788.61056164 -461.3125 782.1875 C-457.63508246 775.78800585 -453.87880318 769.44263701 -450.0625 763.125 C-445.9189145 756.26390296 -441.88947987 749.34814262 -437.9375 742.375 C-434.29489534 735.95022535 -430.57363403 729.5929686 -426.6875 723.3125 C-422.22826079 716.10286895 -417.96658135 708.79146059 -413.75 701.4375 C-408.79545428 692.79986798 -403.76815059 684.21421262 -398.625 675.6875 C-393.16846381 666.63896544 -387.77564673 657.55617711 -382.4375 648.4375 C-382.08033905 647.82749146 -381.7231781 647.21748291 -381.35519409 646.58898926 C-377.63983031 640.24130911 -373.9335622 633.8883717 -370.234375 627.53125 C-369.05217051 625.49994926 -367.86988095 623.46869803 -366.6875 621.4375 C-366.11563965 620.45499268 -365.5437793 619.47248535 -364.95458984 618.46020508 C-360.89796596 611.50440841 -356.76377106 604.59852879 -352.6015625 597.70556641 C-348.54203601 590.95793899 -344.60709986 584.14215933 -340.6875 577.3125 C-335.75271103 568.71737017 -330.74310049 560.17476828 -325.625 551.6875 C-320.16857174 542.63889922 -314.77564759 533.55617858 -309.4375 524.4375 C-309.08033905 523.82749146 -308.7231781 523.21748291 -308.35519409 522.58898926 C-304.63983031 516.24130911 -300.9335622 509.8883717 -297.234375 503.53125 C-296.0521597 501.49995555 -294.86986994 499.46870444 -293.6875 497.4375 C-293.11781494 496.45861816 -292.54812988 495.47973633 -291.96118164 494.47119141 C-287.83250827 487.39125245 -283.62318855 480.36291977 -279.38623047 473.34741211 C-275.93662361 467.61499397 -272.60489958 461.82385937 -269.3125 456 C-264.1271229 446.83356899 -258.68145286 437.83639311 -253.19049072 428.8515625 C-248.71357592 421.52217198 -244.31594986 414.16858668 -240.16577148 406.64868164 C-237.35223387 401.56844028 -234.38067053 396.59363737 -231.375 391.625 C-226.55953638 383.66436098 -221.88159246 375.63141831 -217.25 367.5625 C-212.9440356 360.06211709 -208.58982401 352.62283856 -204 345.29296875 C-201.34135904 340.91555795 -198.83343961 336.45773448 -196.3125 332 C-192.16116823 324.66371422 -187.85266531 317.45407607 -183.375 310.3125 C-179.44894492 304.04510311 -175.66463339 297.74374689 -172.125 291.25 C-167.58488257 282.92083936 -162.72595655 274.80251469 -157.82226562 266.68310547 C-152.75028542 258.27705167 -147.78419789 249.81371282 -142.85302734 241.32446289 C-139.73507084 235.96116874 -136.58941593 230.61849805 -133.375 225.3125 C-129.85245086 219.4965221 -126.48025771 213.60134779 -123.125 207.6875 C-119.41907109 201.15936818 -115.63781703 194.69569675 -111.6875 188.3125 C-107.22820898 181.10290672 -102.9664707 173.79151936 -98.75 166.4375 C-93.06795146 156.52855285 -87.2580118 146.70649066 -81.35791016 136.92602539 C-77.08506822 129.83450611 -72.89959937 122.69851888 -68.77148438 115.52197266 C-66.14627158 110.96306177 -63.47600561 106.43676942 -60.75 101.9375 C-56.53616725 94.97984426 -52.48899487 87.92803705 -48.4375 80.875 C-40.73017966 67.45849268 -40.73017966 67.45849268 -37 61.5 C-33.08321347 55.2416563 -29.42633371 48.83941511 -25.75 42.4375 C-21.03676014 34.23584054 -16.29723745 26.05338592 -11.4375 17.9375 C-10.97375977 17.16011475 -10.51001953 16.38272949 -10.03222656 15.58178711 C-6.84331042 10.28058926 -3.47055181 5.12082073 0 0 Z " fill="#314528" transform="translate(1512,794)"/>
<path d="M0 0 C3.49414496 3.13775766 5.62737597 6.59247748 7.8125 10.6875 C11.85546858 18.07396163 16.14296817 25.29488853 20.5 32.5 C25.08201014 40.08655134 29.57302512 47.70001747 33.859375 55.45703125 C36.81300788 60.76242465 40.02418172 65.88401011 43.27514648 71.01098633 C46.1167779 75.51796635 48.79298664 80.08990865 51.375 84.75 C57.08408114 95.05166858 63.21464581 105.09901432 69.31542969 115.171875 C70.12782961 116.51371127 70.93938364 117.85606012 71.75 119.19897461 C72.7868752 120.91652418 73.82688649 122.63217948 74.8671875 124.34765625 C76.57502466 127.21818044 78.16209304 130.14333273 79.7421875 133.0859375 C83.00639718 139.1058954 86.55904292 144.93728493 90.14645386 150.7677002 C95.84302737 160.03256791 101.40887609 169.33918619 106.60449219 178.89672852 C109.61479509 184.40166866 112.89507584 189.69533814 116.26489258 194.98583984 C119.23849006 199.68937309 121.96948146 204.48594477 124.625 209.375 C128.79801701 217.04483114 133.32329968 224.46340032 137.9375 231.875 C143.29452081 240.48369498 148.39424662 249.1613845 153.20117188 258.08764648 C156.31192642 263.83585638 159.66271165 269.37185775 163.17700195 274.88037109 C166.47437032 280.07930114 169.53887022 285.38796794 172.5625 290.75 C177.40923572 299.33834213 182.47753335 307.77771503 187.625 316.1875 C192.73865548 324.54297371 197.7217603 332.93545828 202.39501953 341.54760742 C206.06736195 348.25792197 210.1237791 354.71090958 214.18676758 361.18969727 C217.60533803 366.66855565 220.85073739 372.20316945 223.9375 377.875 C227.68207398 384.74925272 231.65482426 391.45383568 235.75 398.125 C241.14868984 406.92010024 246.41314728 415.78140731 251.59082031 424.70825195 C254.77691444 430.19744461 257.98300849 435.67352592 261.2265625 441.12890625 C261.58313934 441.72885406 261.93971619 442.32880188 262.30709839 442.94692993 C264.0337704 445.8507648 265.76310266 448.75295716 267.49560547 451.65332031 C270.98902641 457.52241035 274.3491981 463.43713212 277.59277344 469.44750977 C279.72571647 473.31633687 282.04060922 477.06298016 284.375 480.8125 C287.58587421 486.01750176 290.74496765 491.23480072 293.75 496.5625 C297.46298574 503.13631082 301.35012756 509.59807456 305.25 516.0625 C309.89103192 523.75909686 314.45704307 531.48574858 318.875 539.3125 C323.97012516 548.33449716 329.33662529 557.17962252 334.74395752 566.01605225 C339.4810006 573.76352826 344.0632393 581.56475529 348.39501953 589.54760742 C352.06736195 596.25792197 356.1237791 602.71090958 360.18676758 609.18969727 C364.04430258 615.3720733 367.63970749 621.65100518 371.12109375 628.05078125 C375.11454658 635.33371286 379.46765088 642.38387059 383.8190918 649.45678711 C387.44521913 655.37539042 390.92620542 661.34432031 394.25 667.4375 C397.66578825 673.69931805 401.29707429 679.76118633 405.12573242 685.77807617 C408.43539096 691.01353948 411.52003392 696.35560739 414.5625 701.75 C419.40931883 710.33830703 424.47768043 718.77761633 429.625 727.1875 C434.78295283 735.61660098 439.81415041 744.08384169 444.54003906 752.76513672 C447.76009308 758.65303975 451.23668888 764.35853565 454.76855469 770.06347656 C458.18105191 775.59898876 461.42895718 781.21218733 464.625 786.875 C470.21222579 796.76577337 476.0892704 806.467785 482.03759766 816.14404297 C485.1367323 821.20351307 488.18529126 826.26005667 490.9921875 831.48828125 C494.15718109 837.38156995 497.64032908 843.0692851 501.14453125 848.7644043 C506.66781699 857.74828227 512.08021463 866.76227241 517.10351562 876.03759766 C521.75268153 884.52916244 526.8654312 892.75088441 531.9375 900.99414062 C535.06904686 906.09441467 538.15355162 911.19764443 540.984375 916.47265625 C544.56268652 923.13917451 548.53887477 929.55731056 552.5 936 C556.99515471 943.3112775 561.38916053 950.63313833 565.44921875 958.19873047 C568.18922248 963.14816416 571.18049619 967.94717854 574.14453125 972.7644043 C579.66781699 981.74828227 585.08021463 990.76227241 590.10351562 1000.03759766 C594.75268153 1008.52916244 599.8654312 1016.75088441 604.9375 1024.99414062 C608.06904686 1030.09441467 611.15355162 1035.19764443 613.984375 1040.47265625 C617.56268652 1047.13917451 621.53887477 1053.55731056 625.5 1060 C629.99515471 1067.3112775 634.38916053 1074.63313833 638.44921875 1082.19873047 C641.18948017 1087.14862964 644.18104576 1091.94809548 647.14535522 1096.76577759 C652.74205978 1105.86890715 658.22088372 1115.00719399 663.32104492 1124.40014648 C667.27362265 1131.62301671 671.59683677 1138.61135747 675.90576172 1145.62548828 C679.15250359 1150.92382527 682.31952433 1156.24204919 685.3125 1161.6875 C690.21138368 1170.59445224 695.5653376 1179.23245548 700.88598633 1187.89135742 C704.04078644 1193.03760965 707.14813373 1198.18797991 710.00390625 1203.5078125 C713.16448374 1209.3950786 716.64449899 1215.07612809 720.14480591 1220.76495361 C725.28540224 1229.1258926 730.39033186 1237.49033427 735.0625 1246.125 C739.76060652 1254.80635097 744.96248557 1263.17042617 750.20532227 1271.52978516 C754.19108314 1277.91870351 757.90587509 1284.38567231 761.40771484 1291.05297852 C763.42979803 1294.79547563 765.65101491 1298.3888015 767.93359375 1301.9765625 C769 1304 769 1304 769 1307 C709.21690211 1307.37709846 649.43366926 1307.72688305 589.64970398 1307.93154907 C588.32230872 1307.93610496 588.32230872 1307.93610496 586.9680974 1307.94075288 C567.73581337 1308.00659807 548.50351673 1308.06754189 529.27120127 1308.12343725 C519.83957084 1308.15087846 510.40794383 1308.17940267 500.97631836 1308.20849609 C500.03776217 1308.21137279 499.09920599 1308.21424949 498.1322087 1308.21721336 C467.71495622 1308.31095059 437.2986033 1308.47618807 406.88189572 1308.67853886 C375.62261967 1308.88611703 344.36384135 1309.0214932 313.10388773 1309.06612978 C308.68788603 1309.07246911 304.27188604 1309.07963312 299.85588646 1309.08729935 C298.98676131 1309.08878265 298.11763615 1309.09026596 297.22217387 1309.09179421 C283.23560914 1309.11778493 269.25058421 1309.21979754 255.26464726 1309.35030475 C241.20102163 1309.4799122 227.13892104 1309.52927615 213.07471923 1309.4970303 C204.71912155 1309.48030397 196.36910789 1309.52479379 188.01451997 1309.65754595 C181.77140564 1309.74996164 175.53365578 1309.72707106 169.29033186 1309.65977569 C166.7677579 1309.65048173 164.2447125 1309.67839389 161.72306625 1309.74743001 C146.31409668 1310.1447237 146.31409668 1310.1447237 140 1307 C134.37746151 1301.63288405 131.18720681 1294.70394055 128.1615087 1287.64966197 C126.56124418 1283.99909953 124.62632703 1280.63290297 122.625 1277.1875 C121.91471987 1275.91775372 121.20619653 1274.64702198 120.5 1273.375 C116.69047019 1266.63801272 112.64551367 1260.03779824 108.64892578 1253.41088867 C104.42503705 1246.39940229 100.28327691 1239.34811915 96.20800781 1232.24951172 C91.71666549 1224.45337551 87.05739138 1216.75981556 82.41064453 1209.05566406 C78.60451819 1202.72735893 74.91479215 1196.35522388 71.34887695 1189.8894043 C68.26589394 1184.35468497 64.9242815 1178.99378634 61.5625 1173.625 C57.57500337 1167.25325065 53.72098708 1160.85092519 50.125 1154.25 C45.51751902 1145.79244526 40.57629189 1137.55327344 35.59814453 1129.30957031 C31.83592631 1123.07427894 28.12504838 1116.81596809 24.5 1110.5 C19.59150001 1101.94976953 14.509106 1093.50865155 9.41723633 1085.06665039 C5.53656989 1078.614452 1.77356442 1072.11584954 -1.86865234 1065.52685547 C-4.35212471 1061.06638542 -7.00878496 1056.74357549 -9.75 1052.4375 C-13.76839724 1046.11974312 -17.48062581 1039.66488916 -21.125 1033.125 C-26.62784801 1023.25768131 -32.45259807 1013.61866658 -38.44384766 1004.04345703 C-42.00833423 998.3278159 -45.37860322 992.56547198 -48.5637207 986.63037109 C-50.87127617 982.40436351 -53.37360426 978.30071494 -55.875 974.1875 C-59.25311711 968.59725604 -62.60290358 963.0012814 -65.8125 957.3125 C-69.50770391 950.78251389 -73.3750121 944.36215263 -77.25 937.9375 C-82.45937327 929.29830109 -87.54208211 920.60269902 -92.50634766 911.82080078 C-96.24813782 905.23540042 -100.1602151 898.76567262 -104.125 892.3125 C-108.173742 885.72156273 -112.11949524 879.10933467 -115.8125 872.3125 C-120.4293894 863.82344383 -125.45370996 855.59598267 -130.4956665 847.35601807 C-135.68426171 838.87225846 -140.72639299 830.322991 -145.61279297 821.66088867 C-149.27821444 815.19165128 -153.1102132 808.83650289 -157 802.5 C-161.94881909 794.43693087 -166.72916243 786.30145615 -171.3840332 778.06567383 C-175.99045937 769.94516117 -180.80715889 761.95686784 -185.63330078 753.96557617 C-189.49737072 747.55157943 -193.24149767 741.09101422 -196.86230469 734.53735352 C-199.40591031 729.96737405 -202.13258787 725.53865139 -204.9375 721.125 C-208.40840996 715.66109875 -211.65129359 710.12045577 -214.75 704.4375 C-218.59453041 697.39392732 -222.6735872 690.52386165 -226.875 683.6875 C-231.35313048 676.3991603 -235.72775233 669.0717023 -239.9375 661.625 C-244.90958449 652.83387473 -250.06952542 644.16720664 -255.28613281 635.51928711 C-260.24598461 627.28641418 -265.10418409 618.99830321 -269.92993164 610.6862793 C-274.1553821 603.41855253 -278.46846272 596.20772253 -282.81542969 589.01220703 C-285.78501651 584.07847622 -288.65171516 579.10195347 -291.4375 574.0625 C-295.50846591 566.70071844 -299.91980704 559.56486985 -304.39624023 552.44360352 C-305.94596958 549.97142189 -307.47472224 547.48732222 -309 545 C-309.50724609 544.20190918 -310.01449219 543.40381836 -310.53710938 542.58154297 C-311.00439453 541.81084473 -311.47167969 541.04014648 -311.953125 540.24609375 C-312.37239258 539.57118896 -312.79166016 538.89628418 -313.22363281 538.20092773 C-314.32713906 535.07259164 -313.86827221 533.18845 -313 530 C-311.41210938 526.84155273 -311.41210938 526.84155273 -309.34375 523.43359375 C-308.96951401 522.81042267 -308.59527802 522.18725159 -308.20970154 521.54519653 C-306.98161795 519.5040418 -305.74074627 517.47097744 -304.5 515.4375 C-303.63895558 514.01034719 -302.77902544 512.58252155 -301.92016602 511.15405273 C-300.59701973 508.95364258 -299.27321443 506.75366228 -297.94593811 504.55574036 C-293.90978262 497.87057693 -289.94914356 491.14274682 -286.01062012 484.39971924 C-284.59212106 481.97119916 -283.17110584 479.54415529 -281.75021362 477.11703491 C-280.75946807 475.42453968 -279.76913215 473.73180469 -278.77880859 472.0390625 C-274.86484702 465.35212951 -270.93521259 458.67444388 -267 452 C-266.4951709 451.1435791 -265.9903418 450.2871582 -265.47021484 449.40478516 C-254.71828415 431.17019964 -254.71828415 431.17019964 -249.25 422.125 C-246.24901896 417.15975279 -243.3786539 412.13463806 -240.5625 407.0625 C-237.61037833 401.74855308 -234.51583175 396.56420268 -231.25 391.4375 C-226.5131699 383.99191174 -222.19729561 376.33501925 -217.88989258 368.63500977 C-214.52314959 362.63733478 -211.05997125 356.72153066 -207.4375 350.875 C-203.57197694 344.63531022 -199.86549392 338.32531112 -196.25 331.9375 C-191.88007194 324.22360225 -187.39146399 316.59164536 -182.8125 309 C-177.20576683 299.70391862 -171.66952388 290.36993033 -166.1875 281 C-165.82383331 280.37850067 -165.46016663 279.75700134 -165.08547974 279.1166687 C-163.33741607 276.12878184 -161.59012512 273.14044419 -159.84326172 270.15185547 C-157.48458871 266.11868082 -155.1195454 262.08929468 -152.75 258.0625 C-152.37190186 257.41990234 -151.99380371 256.77730469 -151.60424805 256.11523438 C-147.68087023 249.45173288 -143.74435013 242.79598761 -139.80883789 236.13964844 C-136.20224499 230.03854394 -132.60622748 223.93135118 -129.01733398 217.81982422 C-126.08921461 212.8389366 -123.14352634 207.86861643 -120.19403076 202.90036011 C-111.87637849 188.8942048 -111.87637849 188.8942048 -103.6875 174.8125 C-98.36427448 165.5613074 -92.90169264 156.3940143 -87.44351196 147.22210693 C-81.45847045 137.16339913 -75.52490551 127.07727964 -69.64306641 116.95776367 C-66.32404858 111.25255908 -62.95915993 105.57963171 -59.53833008 99.93505859 C-55.78160984 93.70101245 -52.18377928 87.37581451 -48.5625 81.0625 C-44.39210667 73.79398225 -40.19179857 66.56715178 -35.6875 59.5 C-32.40383887 54.34726992 -29.3586776 49.1162935 -26.4375 43.75 C-21.9065008 35.4377151 -17.04362163 27.3363418 -12.125 19.25 C-11.75228973 18.63636597 -11.37957947 18.02273193 -10.99557495 17.39050293 C-7.42934286 11.52434161 -3.83620638 5.69435227 0 0 Z " fill="#314528" transform="translate(2288,774)"/>
<path d="M0 0 C4.19819646 3.64632087 6.61959126 8.12672588 9.375 12.875 C13.70322724 20.21317871 18.14717651 27.45590811 22.75 34.625 C27.89807209 42.65710803 32.94987268 50.74227758 37.9375 58.875 C43.11265271 67.31273543 48.31142248 75.73427298 53.5625 84.125 C54.17802734 85.10855469 54.79355469 86.09210938 55.42773438 87.10546875 C57.28444869 90.07075646 59.14204459 93.03548978 61 96 C69.39469888 109.39438526 77.74407501 122.81424558 86.01708984 136.28417969 C92.94905914 147.56188926 99.97006063 158.78319311 107 170 C115.39469888 183.39438526 123.74407501 196.81424558 132.01708984 210.28417969 C138.94905914 221.56188926 145.97006063 232.78319311 153 244 C161.39469888 257.39438526 169.74407501 270.81424558 178.01708984 284.28417969 C184.94905914 295.56188926 191.97006063 306.78319311 199 318 C207.46817726 331.51162564 215.88792415 345.05037274 224.23022461 358.64013672 C228.11109219 364.95430307 232.02678183 371.24357275 236 377.5 C240.67104221 384.85525574 245.25417169 392.26189765 249.8125 399.6875 C257.47425739 412.16758871 265.22313003 424.59140811 273 437 C281.39469888 450.39438526 289.74407501 463.81424558 298.01708984 477.28417969 C304.94905914 488.56188926 311.97006063 499.78319311 319 511 C327.39469888 524.39438526 335.74407501 537.81424558 344.01708984 551.28417969 C350.94905914 562.56188926 357.97006063 573.78319311 365 585 C373.46817726 598.51162564 381.88792415 612.05037274 390.23022461 625.64013672 C394.11109219 631.95430307 398.02678183 638.24357275 402 644.5 C406.67104221 651.85525574 411.25417169 659.26189765 415.8125 666.6875 C423.47425739 679.16758871 431.22313003 691.59140811 439 704 C447.39469888 717.39438526 455.74407501 730.81424558 464.01708984 744.28417969 C470.94905914 755.56188926 477.97006063 766.78319311 485 778 C493.46591025 791.50800845 501.8831136 805.04330465 510.22363281 818.62915039 C514.17046055 825.05023149 518.1528729 831.44626041 522.1875 837.8125 C522.88915283 838.92516235 522.88915283 838.92516235 523.60498047 840.06030273 C526.26556837 844.27740324 528.95383254 848.47476465 531.6640625 852.66015625 C532.88061845 854.56484228 534.0967726 856.46978501 535.3125 858.375 C535.89475342 859.2616333 536.47700684 860.1482666 537.0769043 861.06176758 C537.86834839 862.31123169 537.86834839 862.31123169 538.67578125 863.5859375 C539.14927002 864.3186084 539.62275879 865.0512793 540.1105957 865.80615234 C541.27477202 868.67776596 540.94018947 870.07060029 540 873 C538.82348633 875.38989258 538.82348633 875.38989258 537.33203125 877.89453125 C536.77580078 878.83748047 536.21957031 879.78042969 535.64648438 880.75195312 C534.73866211 882.26692383 534.73866211 882.26692383 533.8125 883.8125 C532.52715493 885.98556541 531.242004 888.15874566 529.95703125 890.33203125 C528.96823975 891.99613037 528.96823975 891.99613037 527.95947266 893.69384766 C524.94519388 898.77973891 521.97342326 903.8901546 519 909 C517.84659804 910.97800681 516.69295072 912.95587056 515.5390625 914.93359375 C514.96317383 915.92085449 514.38728516 916.90811523 513.79394531 917.92529297 C511.91264235 921.14972541 510.03060228 924.3737268 508.1484375 927.59765625 C507.51679687 928.67982422 506.88515625 929.76199219 506.234375 930.87695312 C505.02890425 932.94220815 503.82319012 935.00732114 502.6171875 937.07226562 C499.72090612 942.03487983 496.84034619 947.00514731 494 952 C490.50432049 950.8347735 490.27537066 950.26557276 488.50390625 947.1953125 C488.03436523 946.39464355 487.56482422 945.59397461 487.08105469 944.76904297 C486.57993164 943.89650879 486.07880859 943.02397461 485.5625 942.125 C484.47716533 940.27492284 483.3898793 938.42598924 482.30078125 936.578125 C481.7485791 935.63904297 481.19637695 934.69996094 480.62744141 933.73242188 C478.24414612 929.73094561 475.75561874 925.80063999 473.25 921.875 C468.49173082 914.39693129 463.82338234 906.8670239 459.1875 899.3125 C451.52595287 886.83228375 443.77686858 874.40858968 436 862 C427.60530112 848.60561474 419.25592499 835.18575442 410.98291016 821.71582031 C404.05094086 810.43811074 397.02993937 799.21680689 390 788 C381.53182274 774.48837436 373.11207585 760.94962726 364.76977539 747.35986328 C360.88890781 741.04569693 356.97321817 734.75642725 353 728.5 C348.32895779 721.14474426 343.74582831 713.73810235 339.1875 706.3125 C331.52574261 693.83241129 323.77686997 681.40859189 316 669 C307.60530112 655.60561474 299.25592499 642.18575442 290.98291016 628.71582031 C284.05094086 617.43811074 277.02993937 606.21680689 270 595 C261.60530112 581.60561474 253.25592499 568.18575442 244.98291016 554.71582031 C238.05094086 543.43811074 231.02993937 532.21680689 224 521 C215.53182274 507.48837436 207.11207585 493.94962726 198.76977539 480.35986328 C194.88890781 474.04569693 190.97321817 467.75642725 187 461.5 C182.32895779 454.14474426 177.74582831 446.73810235 173.1875 439.3125 C165.52574261 426.83241129 157.77686997 414.40859189 150 402 C141.60530112 388.60561474 133.25592499 375.18575442 124.98291016 361.71582031 C118.05094086 350.43811074 111.02993937 339.21680689 104 328 C95.60530112 314.60561474 87.25592499 301.18575442 78.98291016 287.71582031 C72.05094086 276.43811074 65.02993937 265.21680689 58 254 C49.53182274 240.48837436 41.11207585 226.94962726 32.76977539 213.35986328 C28.88890781 207.04569693 24.97321817 200.75642725 21 194.5 C16.32895779 187.14474426 11.74582831 179.73810235 7.1875 172.3125 C-0.47425739 159.83241129 -8.22313003 147.40859189 -16 135 C-18.48035234 131.04240781 -20.95974197 127.08421702 -23.4375 123.125 C-24.04577637 122.15304687 -24.65405273 121.18109375 -25.28076172 120.1796875 C-30.80872176 111.33262937 -36.2753259 102.44828592 -41.72241211 93.55126953 C-42.6699939 92.00608643 -42.6699939 92.00608643 -43.63671875 90.4296875 C-44.2198584 89.4715918 -44.80299805 88.51349609 -45.40380859 87.52636719 C-46.71592139 85.44962457 -48.09659992 83.52153043 -49.58203125 81.5703125 C-50.04996094 80.72210937 -50.51789063 79.87390625 -51 79 C-49.93923178 75.583089 -48.34221819 72.77714578 -46.33984375 69.83203125 C-45.80238525 69.03490723 -45.26492676 68.2377832 -44.71118164 67.41650391 C-44.1258667 66.55718262 -43.54055176 65.69786133 -42.9375 64.8125 C-41.66297174 62.92130756 -40.38958544 61.02934514 -39.1171875 59.13671875 C-38.44526367 58.13817871 -37.77333984 57.13963867 -37.08105469 56.11083984 C-33.53418747 50.80884757 -30.04838481 45.46720714 -26.5625 40.125 C-25.85585205 39.04307373 -25.1492041 37.96114746 -24.42114258 36.84643555 C-20.83916844 31.35945979 -17.2633346 25.86851991 -13.69140625 20.375 C-13.0068335 19.32296387 -12.32226074 18.27092773 -11.61694336 17.18701172 C-10.32087544 15.19469847 -9.02604969 13.20157641 -7.73266602 11.20751953 C-7.15315186 10.31661621 -6.5736377 9.42571289 -5.9765625 8.5078125 C-5.47205566 7.73066895 -4.96754883 6.95352539 -4.44775391 6.15283203 C-3.03089624 4.04594318 -1.54206083 2.01654108 0 0 Z " fill="#FEFEFE" transform="translate(1495,1234)"/>
<path d="M0 0 C3.06942939 2.83998975 5.09918742 5.59862585 7.1015625 9.26171875 C7.9522229 10.80267212 7.9522229 10.80267212 8.82006836 12.37475586 C9.71350952 14.01456421 9.71350952 14.01456421 10.625 15.6875 C11.88793429 17.97472564 13.15225999 20.26118353 14.41796875 22.546875 C15.03333496 23.65998047 15.64870117 24.77308594 16.28271484 25.91992188 C18.44303833 29.79462206 20.67002558 33.62478733 22.9375 37.4375 C27.07379292 44.40732997 31.14115688 51.41505343 35.1875 58.4375 C36.14342041 60.09616089 36.14342041 60.09616089 37.11865234 61.78833008 C39.0796138 65.1919253 41.03988215 68.59591889 43 72 C50.30469788 84.68347618 57.61598343 97.36249179 65 110 C71.74701194 121.54729516 78.43339318 133.12902027 85.10888672 144.71777344 C88.23680148 150.14659942 91.36858448 155.57319281 94.5 161 C95.75001879 163.16665583 97.00001878 165.3333225 98.25 167.5 C98.86875 168.5725 99.4875 169.645 100.125 170.75 C150.75 258.5 150.75 258.5 152.62524414 261.75048828 C153.87435518 263.91557071 155.12354129 266.08060982 156.37280273 268.24560547 C159.51202309 273.68615706 162.64990563 279.12747216 165.78515625 284.5703125 C171.80747329 295.02206199 177.84669337 305.46299548 183.9375 315.875 C189.35921178 325.14499777 194.70204915 334.45831752 200.01922607 343.78845215 C205.22045129 352.9128284 210.48027878 362.00132774 215.78344727 371.06689453 C221.93766742 381.59084625 228.02369996 392.15380137 234.10888672 402.71777344 C237.23680148 408.14659942 240.36858448 413.57319281 243.5 419 C244.75001879 421.16665583 246.00001878 423.3333225 247.25 425.5 C247.86875 426.5725 248.4875 427.645 249.125 428.75 C254.75 438.5 254.75 438.5 256.62524414 441.75048828 C257.87435518 443.91557071 259.12354129 446.08060982 260.37280273 448.24560547 C263.51202309 453.68615706 266.64990563 459.12747216 269.78515625 464.5703125 C275.83055159 475.06232094 281.89110219 485.54481676 288 496 C294.74701194 507.54729516 301.43339318 519.12902027 308.10888672 530.71777344 C311.23680148 536.14659942 314.36858448 541.57319281 317.5 547 C318.75001879 549.16665583 320.00001878 551.3333225 321.25 553.5 C321.86875 554.5725 322.4875 555.645 323.125 556.75 C328.75 566.50000001 328.75 566.50000001 330.6262207 569.75219727 C331.8720577 571.91159395 333.11798818 574.07093669 334.36401367 576.23022461 C337.55348953 581.75767597 340.74116885 587.28615121 343.92578125 592.81640625 C344.571521 593.93716553 345.21726074 595.0579248 345.88256836 596.21264648 C347.15358748 598.41880124 348.42394941 600.62533478 349.69360352 602.83227539 C352.48485361 607.67627672 355.2908789 612.50875119 358.1640625 617.3046875 C358.63739014 618.09673584 359.11071777 618.88878418 359.59838867 619.70483398 C360.46242158 621.14541391 361.33198539 622.58269773 362.20825195 624.01586914 C365 628.66998719 365 628.66998719 365 632 C353.69912521 632.65529418 342.39807556 633.30747832 331.09679604 633.95575714 C325.84845893 634.25691579 320.6001866 634.55912165 315.35205078 634.86376953 C310.28177232 635.15805355 305.211339 635.44952301 300.14078903 635.73908997 C298.21198192 635.84972634 296.28323145 635.96135511 294.35454178 636.07402039 C291.64096684 636.23236039 288.92720694 636.38708274 286.21337891 636.54101562 C285.42646667 636.58776932 284.63955444 636.63452301 283.82879639 636.68269348 C278.21508912 636.99584043 272.62176132 637.0486768 267 637 C266.65548294 636.36108826 266.31096588 635.72217651 265.95600891 635.06390381 C260.45306888 624.86434485 254.91452211 614.70073733 248.99145508 604.73828125 C245.21039212 598.37764221 241.50589277 591.97440383 237.8125 585.5625 C237.17538086 584.45696777 236.53826172 583.35143555 235.88183594 582.21240234 C233.92067829 578.80858221 231.96026397 575.40433487 230 572 C222.69530212 559.31652382 215.38401657 546.63750821 208 534 C201.25298806 522.45270484 194.56660682 510.87097973 187.89111328 499.28222656 C184.76319852 493.85340058 181.63141552 488.42680719 178.5 483 C177.24998121 480.83334417 175.99998122 478.6666775 174.75 476.5 C174.13125 475.4275 173.5125 474.355 172.875 473.25 C122.25 385.5 122.25 385.5 120.37475586 382.24951172 C119.12564482 380.08442929 117.87645871 377.91939018 116.62719727 375.75439453 C113.48797691 370.31384294 110.35009437 364.87252784 107.21484375 359.4296875 C101.16944841 348.93767906 95.10889781 338.45518324 89 328 C82.25298806 316.45270484 75.56660682 304.87097973 68.89111328 293.28222656 C65.76319852 287.85340058 62.63141552 282.42680719 59.5 277 C58.24998121 274.83334417 56.99998122 272.6666775 55.75 270.5 C55.13125 269.4275 54.5125 268.355 53.875 267.25 C3.25 179.5 3.25 179.5 1.37475586 176.24951172 C0.12564482 174.08442929 -1.12354129 171.91939018 -2.37280273 169.75439453 C-5.51202309 164.31384294 -8.64990563 158.87252784 -11.78515625 153.4296875 C-17.83055464 142.93767377 -23.89183703 132.45561606 -30 122 C-31.72091724 119.05034982 -33.44139795 116.10044565 -35.16162109 113.15039062 C-36.45755058 110.92958397 -37.75469363 108.70951921 -39.05322266 106.49023438 C-40.8057652 103.49418822 -42.55303023 100.49511505 -44.29711914 97.49414062 C-45.29167528 95.78577104 -46.29129291 94.08035129 -47.29101562 92.375 C-47.89236328 91.33859375 -48.49371094 90.3021875 -49.11328125 89.234375 C-49.64735596 88.31881836 -50.18143066 87.40326172 -50.73168945 86.45996094 C-51.91528528 84.16430904 -52.65888878 82.54343803 -53 80 C-52.15388489 78.05044556 -52.15388489 78.05044556 -50.76879883 75.98291016 C-50.25199554 75.19811279 -49.73519226 74.41331543 -49.20272827 73.60473633 C-48.62664825 72.75806396 -48.05056824 71.9113916 -47.45703125 71.0390625 C-46.86548248 70.14840088 -46.27393372 69.25773926 -45.66445923 68.34008789 C-43.72560084 65.42698952 -41.76925278 62.52610192 -39.8125 59.625 C-38.48004773 57.63016449 -37.14875316 55.63455522 -35.81860352 53.63818359 C-33.14986814 49.63699908 -30.4742589 45.6405634 -27.79199219 41.6484375 C-24.43363196 36.64963366 -21.09104939 31.64058229 -17.7578125 26.625 C-13.79011374 20.65669569 -9.81452009 14.69379268 -5.82983398 8.73681641 C-3.88387802 5.82632056 -1.94150541 2.91346603 0 0 Z " fill="#FDFDFD" transform="translate(2289,1220)"/>
<path d="M0 0 C1.52540673 1.2510166 3.03193444 2.52493888 4.53808594 3.79907227 C5.98828125 5.02110352 5.98828125 5.02110352 7.46777344 6.26782227 C27.21936053 23.55730016 41.28569046 47.33638049 47.53808594 72.79907227 C47.92975952 74.35392334 47.92975952 74.35392334 48.3293457 75.94018555 C50.53942752 85.63893657 50.97282023 94.95116712 50.87426758 104.87915039 C50.85054661 107.42829885 50.85375113 109.9764026 50.86035156 112.52563477 C50.8404072 124.66888075 49.93095731 136.37330522 46.35058594 148.04907227 C46.02803833 149.11049438 46.02803833 149.11049438 45.69897461 150.19335938 C39.8912583 168.7473229 31.30570369 185.04593915 18.53808594 199.79907227 C17.84199219 200.62793945 17.14589844 201.45680664 16.42871094 202.31079102 C-4.97178474 227.08831526 -38.51681377 242.70596422 -70.9375 245.61743164 C-109.94415953 248.42410037 -146.44468631 238.20922551 -176.46191406 212.79907227 C-177.29722656 212.09911133 -178.13253906 211.39915039 -178.99316406 210.67797852 C-204.05363623 188.98210678 -219.74603122 155.83611034 -222.265625 122.98193359 C-224.63663505 84.5355928 -216.13851958 49.5249113 -190.98925781 19.64672852 C-173.55477203 0.00261702 -152.71595176 -14.45354029 -127.46191406 -22.20092773 C-126.69363281 -22.44359375 -125.92535156 -22.68625977 -125.13378906 -22.9362793 C-83.89013467 -35.39803634 -33.82982004 -26.93374134 0 0 Z " fill="#010101" transform="translate(2320.4619140625,2715.200927734375)"/>
<path d="M0 0 C21.45 0 42.9 0 65 0 C65 88.11 65 176.22 65 267 C43.55 267 22.1 267 0 267 C-17.30307565 247.99498248 -17.30307565 247.99498248 -20.640625 239.5 C-25.62714554 228.1682756 -32.0924183 218.25737628 -39.07861328 208.06976318 C-42.23168598 203.44241866 -45.29075502 198.7538882 -48.359375 194.0703125 C-53.62618176 186.06827062 -58.92481382 178.08829494 -64.25 170.125 C-71.56902465 159.17742779 -78.82324497 148.18793371 -86.0625 137.1875 C-86.5927478 136.38225891 -87.12299561 135.57701782 -87.66931152 134.74737549 C-89.20881796 132.40899166 -90.74718171 130.06986034 -92.28515625 127.73046875 C-92.72833694 127.05734146 -93.17151764 126.38421417 -93.62812805 125.69068909 C-98.13696973 118.82580766 -102.5578486 111.91001329 -107 105 C-107.33 158.46 -107.66 211.92 -108 267 C-129.45 267 -150.9 267 -173 267 C-173 179.22 -173 91.44 -173 1 C-151.55 1 -130.1 1 -108 1 C-102.60872116 8.41300841 -97.49160424 15.76520693 -92.625 23.5 C-86.99963364 32.36337245 -81.28047064 41.15262909 -75.4375 49.875 C-68.51148926 60.21685068 -61.64244344 70.59443343 -54.8125 81 C-54.3312265 81.7331543 -53.849953 82.46630859 -53.35409546 83.22167969 C-51.38869215 86.21595596 -49.42354539 89.21040028 -47.45884705 92.20513916 C-44.00525301 97.46929229 -40.54856462 102.73140159 -37.08984375 107.9921875 C-36.59889725 108.73897766 -36.10795074 109.48576782 -35.60212708 110.25518799 C-33.71731926 113.12217356 -31.83249385 115.98914754 -29.94741821 118.85595703 C-20.2801809 133.55880977 -10.64325242 148.28135156 -1 163 C-0.67 109.21 -0.34 55.42 0 0 Z " fill="#010101" transform="translate(2581,2691)"/>
<path d="M0 0 C21.45 0 42.9 0 65 0 C65 88.11 65 176.22 65 267 C43.55 267 22.1 267 0 267 C-18.45542961 246.2731329 -18.45542961 246.2731329 -22.1953125 237.16796875 C-27.4585315 225.58762563 -34.0319978 215.33894675 -41.21337891 204.86761475 C-44.34488808 200.27243499 -47.38263215 195.61625289 -50.4296875 190.96484375 C-55.6727604 182.99775824 -60.9483194 175.05318996 -66.25 167.125 C-73.61079462 156.11500905 -80.90636886 145.06278547 -88.1875 134 C-88.72628784 133.18194885 -89.26507568 132.36389771 -89.82019043 131.52105713 C-91.37459062 129.16051062 -92.92774039 126.79914647 -94.48046875 124.4375 C-94.93397202 123.74888885 -95.38747528 123.06027771 -95.85472107 122.35079956 C-99.62995624 116.60289074 -103.30666915 110.80380562 -107 105 C-107.33 158.46 -107.66 211.92 -108 267 C-129.45 267 -150.9 267 -173 267 C-173 179.22 -173 91.44 -173 1 C-151.55 1 -130.1 1 -108 1 C-102.91005915 7.99866867 -98.05961314 14.87469458 -93.5 22.1875 C-88.66323114 29.86172704 -83.73868961 37.46520576 -78.6875 45 C-71.71741964 55.40276923 -64.81562532 65.84877275 -57.9375 76.3125 C-57.40502655 77.12245422 -56.8725531 77.93240845 -56.32394409 78.76690674 C-53.07592755 83.70787371 -49.82903725 88.64957991 -46.5824585 93.5914917 C-44.06219267 97.42734659 -41.54082921 101.26247973 -39.01953125 105.09765625 C-26.33635608 124.39188266 -13.66827015 143.69596929 -1 163 C-0.67 109.21 -0.34 55.42 0 0 Z " fill="#010101" transform="translate(1763,2691)"/>
<path d="M0 0 C0.69771011 0.00359528 1.39542023 0.00719055 2.11427307 0.01089478 C3.2117688 0.01067574 3.2117688 0.01067574 4.33143616 0.01045227 C6.76094989 0.0111515 9.19038789 0.01894432 11.61988831 0.02676392 C13.29997719 0.02862806 14.98006662 0.03005198 16.66015625 0.03105164 C21.09071849 0.03487709 25.52124815 0.04470761 29.95179749 0.05575562 C34.46941182 0.06596914 38.98703139 0.07054913 43.50465393 0.07559204 C52.37511098 0.08632986 61.24554381 0.10340661 70.11598206 0.12442017 C75.26515104 13.14250103 80.09457049 26.25498136 84.79109192 39.44296265 C86.87839964 45.30354172 88.9744072 51.16101131 91.06910706 57.01895142 C91.70636215 58.8020874 91.70636215 58.8020874 92.35649109 60.62124634 C96.45703401 72.09065509 100.59334102 83.54697305 104.74098206 94.99942017 C105.26024261 96.4335878 105.26024261 96.4335878 105.78999329 97.89672852 C107.53394504 102.71334992 109.27840613 107.52978657 111.02320862 112.34609985 C114.20237868 121.12271951 117.37640807 129.90119859 120.55091858 138.67950439 C121.61571889 141.6236925 122.68075332 144.56779581 123.74586487 147.51187134 C126.91663953 156.27646461 130.08660329 165.04134615 133.25189209 173.80792236 C134.6487778 177.67656368 136.04626769 181.54498658 137.44389343 185.4133606 C138.13833844 187.33572912 138.83257486 189.25817301 139.52659607 191.18069458 C143.78614671 202.97814851 148.07896664 214.7627799 152.40895081 226.53457642 C153.29587154 228.94903141 154.18275338 231.36350069 155.06959534 233.77798462 C156.78262681 238.44129009 158.50205046 243.10217402 160.22486877 247.76187134 C161.00260665 249.87742757 161.78012477 251.99306461 162.55738831 254.10879517 C162.91898544 255.08143814 163.28058258 256.05408112 163.65313721 257.05619812 C163.97933548 257.94721725 164.30553375 258.83823639 164.64161682 259.7562561 C164.9278743 260.53160706 165.21413177 261.30695801 165.50906372 262.10580444 C166.11598206 264.12442017 166.11598206 264.12442017 166.11598206 267.12442017 C143.34598206 267.12442017 120.57598206 267.12442017 97.11598206 267.12442017 C95.19785706 261.41129517 93.27973206 255.69817017 91.30348206 249.81192017 C90.70430969 248.03261108 90.10513733 246.253302 89.48780823 244.42007446 C89.00294662 242.97134374 88.51831313 241.52253664 88.03395081 240.07363892 C87.79019714 239.35260986 87.54644348 238.63158081 87.29530334 237.88870239 C85.33208302 232.00099195 83.75690399 226.14113394 82.11598206 220.12442017 C32.61598206 220.61942017 32.61598206 220.61942017 -17.88401794 221.12442017 C-25.30901794 243.39942017 -25.30901794 243.39942017 -32.88401794 266.12442017 C-33.88401794 267.12442017 -33.88401794 267.12442017 -36.58581543 267.24467468 C-37.79160751 267.24245407 -38.9973996 267.24023346 -40.23973083 267.23794556 C-40.90311966 267.23809158 -41.56650848 267.23823761 -42.25 267.23838806 C-44.4522575 267.23768897 -46.65443139 267.22989681 -48.85667419 267.22207642 C-50.37982131 267.22021222 -51.90296902 267.21878833 -53.42611694 267.2177887 C-57.44239446 267.21396363 -61.45863602 267.20413345 -65.47489929 267.19308472 C-69.5702516 267.18287035 -73.6656097 267.17829102 -77.76097107 267.17324829 C-85.80200322 267.16251116 -93.84300612 267.14543488 -101.88401794 267.12442017 C-97.63224476 254.14442647 -93.1962169 241.24989815 -88.49147034 228.42724609 C-87.10641789 224.65207145 -85.72821876 220.87440361 -84.34942627 217.09693909 C-83.62301362 215.10696324 -82.89627633 213.11710587 -82.16921997 211.12736511 C-78.23728007 200.36435837 -74.3407557 189.58861288 -70.44651794 178.81192017 C-69.73219349 176.83591612 -69.01783789 174.85992333 -68.30345154 172.88394165 C-66.87131081 168.92249757 -65.43935735 164.96098588 -64.0075531 160.99942017 C-59.85316743 149.50527913 -55.69633873 138.01202093 -51.53831482 126.51919556 C-51.18697479 125.54808334 -50.83563477 124.57697113 -50.47364807 123.57643127 C-49.75090219 121.57875641 -49.02814407 119.58108597 -48.30537415 117.5834198 C-46.3300551 112.12334287 -44.35568502 106.6629246 -42.3825531 101.20205688 C-33.2396332 75.89803137 -24.08797893 50.59718755 -14.83247375 25.33407593 C-14.03755937 23.1637133 -13.24354356 20.99302134 -12.45045471 18.82199097 C-11.36341889 15.8475396 -10.27275141 12.87444777 -9.18089294 9.90176392 C-8.85904526 9.01938553 -8.53719757 8.13700714 -8.20559692 7.22789001 C-5.54648309 0.01205584 -5.54648309 0.01205584 0 0 Z " fill="#010101" transform="translate(1393.884017944336,2690.8755798339844)"/>
<path d="M0 0 C11.56653887 11.02572031 20.20922336 25.70934673 22.46484375 41.71875 C22.46484375 45.67875 22.46484375 49.63875 22.46484375 53.71875 C-0.63515625 53.71875 -23.73515625 53.71875 -47.53515625 53.71875 C-48.52515625 49.75875 -49.51515625 45.79875 -50.53515625 41.71875 C-55.46962205 34.91259027 -59.67125196 31.45969589 -67.53515625 28.71875 C-68.19515625 28.38875 -68.85515625 28.05875 -69.53515625 27.71875 C-84.36134251 26.64456781 -84.36134251 26.64456781 -97.53515625 32.71875 C-102.36502065 37.42477172 -104.67330149 42.93568726 -104.97265625 49.59375 C-104.70494341 56.65066042 -102.37918917 62.28363753 -97.34765625 67.28125 C-85.04016176 76.95931569 -68.9355981 81.15912298 -54.35498047 86.21435547 C-10.0012632 101.61331647 -10.0012632 101.61331647 4.46484375 114.71875 C5.30789063 115.45738281 6.1509375 116.19601563 7.01953125 116.95703125 C20.02340301 129.03205503 25.99116751 143.89891542 26.703125 161.41015625 C27.21189019 183.71405875 21.10570127 203.27027505 5.46484375 219.71875 C-3.78271655 229.2056187 -15.31969682 235.77314911 -27.53515625 240.71875 C-28.74429687 241.21375 -29.9534375 241.70875 -31.19921875 242.21875 C-47.1057667 248.10102385 -64.79832046 248.55852483 -81.53515625 247.71875 C-82.33260254 247.68007812 -83.13004883 247.64140625 -83.95166016 247.6015625 C-112.37434622 245.95351931 -139.01494027 234.57724378 -158.18212891 213.30419922 C-169.75108428 199.74793863 -174.53515625 182.18300804 -174.53515625 164.71875 C-151.76515625 164.71875 -128.99515625 164.71875 -105.53515625 164.71875 C-103.88515625 169.99875 -102.23515625 175.27875 -100.53515625 180.71875 C-95.65071541 187.90175124 -89.89824595 191.6504165 -81.6484375 194.33203125 C-71.65011632 196.16166858 -60.59521469 195.31340486 -52.03515625 189.53125 C-51.21015625 188.933125 -50.38515625 188.335 -49.53515625 187.71875 C-48.87515625 187.71875 -48.21515625 187.71875 -47.53515625 187.71875 C-46.8474122 186.39616528 -46.18804252 185.05888497 -45.53515625 183.71875 C-44.99890625 182.749375 -44.46265625 181.78 -43.91015625 180.78125 C-41.22119542 174.44298519 -41.50571124 166.60119602 -43.78515625 160.21875 C-51.75472975 148.83364499 -62.9283703 144.37481997 -75.53515625 139.71875 C-76.46070313 139.36039063 -77.38625 139.00203125 -78.33984375 138.6328125 C-82.93580773 136.88662558 -87.55800856 135.40619751 -92.28979492 134.06933594 C-121.61675018 125.7625645 -151.82482351 114.3438708 -167.59570312 86.55322266 C-176.93626073 68.31389058 -175.4134552 44.07401315 -169.7265625 25.0078125 C-162.94441139 5.89721783 -147.44386045 -6.73014715 -129.84155273 -15.4284668 C-89.97335168 -34.32905052 -33.23521397 -29.90657159 0 0 Z " fill="#010101" transform="translate(2042.53515625,2713.28125)"/>
<path d="M0 0 C100.02005348 0 100.02005348 0 121.75 20.25 C126.30490989 24.99771031 129.30039939 30.02641568 132 36 C132.62068359 37.28390625 132.62068359 37.28390625 133.25390625 38.59375 C139.03232508 52.60691901 137.52716973 71.13330654 132 85 C129.97017519 89.24554941 127.67734857 93.13271873 125 97 C124.49984375 97.72703125 123.9996875 98.4540625 123.484375 99.203125 C116.03252734 108.76256594 103.69599907 115.41094757 92 118 C90.68 118 89.36 118 88 118 C97.17918967 133.52208726 106.37213693 149.03438601 115.75 164.4375 C121.37302243 173.67626738 126.98558362 182.92083926 132.5625 192.1875 C133.21250977 193.26378662 133.86251953 194.34007324 134.53222656 195.44897461 C135.12100586 196.42874268 135.70978516 197.40851074 136.31640625 198.41796875 C136.83662354 199.28188232 137.35684082 200.1457959 137.89282227 201.03588867 C139 203 139 203 139 204 C111.99691419 207.45172188 111.99691419 207.45172188 104.43408203 202.22753906 C100.1449058 197.23684707 97.78426786 191.24886367 95.36181641 185.19042969 C93.09429348 179.87813323 90.05294017 175.0544489 87.0625 170.125 C85.89177756 168.12476413 84.7251308 166.12213742 83.5625 164.1171875 C79.8992884 157.82610784 76.23117752 151.53789331 72.5625 145.25 C71.4596155 143.35938662 70.35675026 141.468762 69.25390625 139.578125 C68.18011719 137.73734375 67.10632812 135.8965625 66 134 C62.535 128.06 62.535 128.06 59 122 C48.44 121.67 37.88 121.34 27 121 C27 148.39 27 175.78 27 204 C18.09 204 9.18 204 0 204 C0 136.68 0 69.36 0 0 Z " fill="#040404" transform="translate(1940,3032)"/>
<path d="M0 0 C101.08921162 0 101.08921162 0 121.25 18.6875 C132.50622238 30.70490135 136.65214913 45.36487636 136.54541016 61.45043945 C135.9396657 78.26225185 128.86645538 92.27362082 117 104 C111.35769588 109.11717878 104.9985402 112.11270987 98 115 C97.16855469 115.37640625 96.33710938 115.7528125 95.48046875 116.140625 C92.83001024 117.05889409 90.7838081 117.15907475 88 117 C93.68859063 127.43718623 99.76022298 137.62307882 105.95394897 147.76708984 C112.95468086 159.23487355 119.83123826 170.7733455 126.66748047 182.33984375 C127.42930661 183.62763692 128.19118633 184.9153984 128.953125 186.203125 C129.3116153 186.81007202 129.67010559 187.41701904 130.03945923 188.0423584 C131.98763087 191.33069433 133.98524042 194.57864317 136.046875 197.796875 C138 201 138 201 138 203 C127.44 203 116.88 203 106 203 C104.63875 200.525 103.2775 198.05 101.875 195.5 C96.03252451 184.9457873 89.93855488 174.54170845 83.83642578 164.13623047 C81.98860804 160.98054493 80.14746331 157.82106342 78.30859375 154.66015625 C77.10158567 152.58592401 75.89455479 150.51170505 74.6875 148.4375 C74.10758301 147.44073242 73.52766602 146.44396484 72.93017578 145.41699219 C69.1870006 138.99675635 65.3990542 132.60598135 61.48706055 126.28686523 C59 122.2158734 59 122.2158734 59 120 C48.11 120 37.22 120 26 120 C26 147.39 26 174.78 26 203 C17.42 203 8.84 203 0 203 C0 136.01 0 69.02 0 0 Z " fill="#010101" transform="translate(2419,3033)"/>
<path d="M0 0 C1.97178223 0.01317261 1.97178223 0.01317261 3.98339844 0.02661133 C13.64078467 0.22975441 21.35537054 1.3554213 30.0625 5.5625 C31.39087891 6.08650391 31.39087891 6.08650391 32.74609375 6.62109375 C48.7490307 13.43669716 59.41604809 29.15168534 66.0625 44.5625 C69.86920398 55.32963716 70.24342649 66.04884412 70.25 77.375 C70.26224609 78.47392578 70.27449219 79.57285156 70.28710938 80.70507812 C70.32545004 102.39311648 63.48613974 122.05503439 48.2109375 137.609375 C43.95284659 141.73448205 39.30261846 144.81049534 34.0625 147.5625 C33.15628906 148.04332031 32.25007813 148.52414063 31.31640625 149.01953125 C21.52556255 153.83857063 11.63234629 154.93950807 0.8125 154.875 C-0.18821533 154.86936035 -1.18893066 154.8637207 -2.2199707 154.85791016 C-19.51665417 154.5767538 -33.77057358 150.09947808 -46.9375 138.5625 C-47.85982422 137.76392578 -47.85982422 137.76392578 -48.80078125 136.94921875 C-62.12150288 124.5736481 -69.28915568 105.55357776 -70.06347656 87.6496582 C-70.62417697 64.30429343 -69.65361647 40.60367449 -52.9375 22.5625 C-52.22078125 21.74394531 -51.5040625 20.92539063 -50.765625 20.08203125 C-37.09564483 5.3175592 -19.8364504 -0.23068604 0 0 Z " fill="#FEFEFE" transform="translate(2234.9375,2746.4375)"/>
<path d="M0 0 C19.35268419 16.45787265 32.40306416 38.92883902 35.57666016 64.34082031 C37.08997427 96.85873051 33.55032053 125.64998827 11.57666016 151.34082031 C10.81353516 152.35144531 10.05041016 153.36207031 9.26416016 154.40332031 C-4.43422377 169.37597251 -23.640471 179.41027663 -43.42333984 183.34082031 C-44.40302734 183.54578125 -45.38271484 183.75074219 -46.39208984 183.96191406 C-60.1752215 186.48534094 -74.7323466 186.28548388 -88.42333984 183.34082031 C-89.60025391 183.09589844 -90.77716797 182.85097656 -91.98974609 182.59863281 C-116.54708515 176.81139754 -138.29583226 161.27386524 -152.02416992 140.14135742 C-167.54412632 115.03016427 -172.55374117 84.09175335 -165.91943359 55.34765625 C-159.31122685 28.61563879 -143.11439659 5.65571963 -119.42333984 -8.65917969 C-82.13953939 -30.08120145 -33.5690952 -27.5422319 0 0 Z M-121.80615234 23.94384766 C-139.39182995 45.6810013 -142.67571875 70.53441902 -140.20507812 97.74462891 C-137.53131434 117.1282416 -127.04520659 136.06673379 -111.67333984 148.15332031 C-94.31298536 160.49993374 -73.86414909 164.7910225 -52.89208984 161.84472656 C-40.63405553 159.21162939 -29.61935445 154.64248239 -19.42333984 147.34082031 C-18.78912109 146.89222656 -18.15490234 146.44363281 -17.50146484 145.98144531 C-7.70480678 138.34184958 -1.05106265 126.66495957 3.57666016 115.34082031 C3.83495605 114.71062988 4.09325195 114.08043945 4.359375 113.43115234 C12.545336 92.31168842 11.02631338 65.15190415 2.57666016 44.34082031 C-6.03867642 25.53800545 -18.75408546 13.68627264 -37.42333984 5.34082031 C-38.14134766 5.00179687 -38.85935547 4.66277344 -39.59912109 4.31347656 C-66.41484244 -7.22819365 -103.01664708 2.16208714 -121.80615234 23.94384766 Z " fill="#030303" transform="translate(2347.42333984375,3052.6591796875)"/>
<path d="M0 0 C1.10956055 0.00491455 2.21912109 0.0098291 3.36230469 0.01489258 C11.25736955 0.12792765 18.23810943 0.73965165 25.75 3.3125 C26.84183594 3.66441406 27.93367188 4.01632813 29.05859375 4.37890625 C36.49511195 6.9838369 42.57179214 10.45042445 48.75 15.3125 C49.58402344 15.93640625 50.41804688 16.5603125 51.27734375 17.203125 C60.26006209 24.86610747 65.47147944 35.91989721 67.75 47.3125 C67.75 48.9625 67.75 50.6125 67.75 52.3125 C58.18 52.3125 48.61 52.3125 38.75 52.3125 C37.43 48.6825 36.11 45.0525 34.75 41.3125 C29.0681642 32.38216279 20.2935414 27.29238755 10.1640625 24.82421875 C-3.38637878 22.79320295 -15.88601852 23.1118131 -27.57421875 30.8515625 C-33.37530951 35.37662775 -37.5181522 40.959122 -38.53222656 48.37695312 C-39.215918 56.34075595 -39.6136636 64.69879302 -34.8515625 71.49609375 C-23.90187886 83.91463739 -8.10868122 87.87117131 7.375 92.1875 C52.29927232 104.87020273 52.29927232 104.87020273 65.27734375 125.24609375 C69.02945809 133.05885173 70.21988481 140.32540322 70.0625 148.9375 C70.06572266 149.82695312 70.06894531 150.71640625 70.07226562 151.6328125 C69.95048765 166.68899868 63.3945622 179.03386833 53.75 190.3125 C36.23945052 205.48441182 14.97970438 209.75615421 -7.53173828 208.53125 C-25.81381991 207.06001368 -43.26609976 198.92722753 -55.9375 185.625 C-60.02901438 180.7437282 -62.74206153 175.13588655 -65.25 169.3125 C-65.63542969 168.42820312 -66.02085937 167.54390625 -66.41796875 166.6328125 C-67.25 163.3125 -67.25 163.3125 -67.25 152.3125 C-58.01 152.3125 -48.77 152.3125 -39.25 152.3125 C-38.59 154.9525 -37.93 157.5925 -37.25 160.3125 C-33.08286787 170.63529048 -27.34575803 177.45483092 -17.25 182.3125 C-11.24530004 184.52318556 -5.68596971 184.61387832 0.625 184.5625 C1.56730469 184.57023437 2.50960937 184.57796875 3.48046875 184.5859375 C14.13787248 184.55645644 24.468301 182.69510086 32.796875 175.55859375 C40.05791912 167.87864324 42.40672192 159.64968275 42.28881836 149.21704102 C41.89693844 140.94238358 39.03637591 135.19243606 33.125 129.5 C28.45537614 125.76780532 23.29470996 123.45862095 17.75 121.3125 C16.97043945 121.01053711 16.19087891 120.70857422 15.38769531 120.39746094 C8.40336474 117.7666712 1.34946008 115.78924914 -5.875 113.9375 C-49.50022699 102.42851091 -49.50022699 102.42851091 -61.44140625 82.3046875 C-65.90226141 73.90972022 -66.61325412 65.86733677 -66.625 56.5 C-66.64949219 55.48357422 -66.67398438 54.46714844 -66.69921875 53.41992188 C-66.75159056 39.72469339 -60.92782111 27.99433906 -51.625 18.125 C-42.80304852 9.72502527 -32.97326624 5.23984814 -21.25 2.3125 C-20.27667725 2.04651001 -20.27667725 2.04651001 -19.28369141 1.77514648 C-12.85054348 0.14325628 -6.6154485 -0.03450756 0 0 Z " fill="#030203" transform="translate(2658.25,3029.6875)"/>
<path d="M0 0 C25.37886493 -3.14214518 25.37886493 -3.14214518 32.38916016 1.62451172 C36.33806646 6.16527666 38.51638739 11.62843889 40.76025391 17.15673828 C42.7769295 21.78182768 45.51607223 25.89805592 48.25 30.125 C49.33427244 31.86237704 50.41491064 33.60202663 51.4921875 35.34375 C52.05260742 36.24609375 52.61302734 37.1484375 53.19042969 38.078125 C55.17804637 41.28748772 57.15681604 44.50222655 59.1328125 47.71875 C59.48533081 48.29245331 59.83784912 48.86615662 60.2010498 49.45724487 C61.92059686 52.25615427 63.63912341 55.05568127 65.35644531 57.85595703 C71.44045087 68.99879452 71.44045087 68.99879452 79 79 C79.40613525 78.28271729 79.81227051 77.56543457 80.23071289 76.82641602 C88.12462586 62.90281479 96.10689886 49.05150475 104.38916016 35.35400391 C111.43813959 23.67064362 118.20910223 11.83556468 125 0 C134.9 0 144.8 0 155 0 C153.49594064 3.7601484 152.14190085 6.58090022 150.015625 9.9296875 C149.4175 10.87779297 148.819375 11.82589844 148.203125 12.80273438 C147.55859375 13.81658203 146.9140625 14.83042969 146.25 15.875 C144.87904893 18.04874838 143.50928493 20.22324582 142.140625 22.3984375 C141.09938477 24.05311035 141.09938477 24.05311035 140.03710938 25.74121094 C136.97903603 30.63324869 133.98692023 35.56430689 131 40.5 C126.22927326 48.37345208 121.39183115 56.2012364 116.5 64 C113.99743455 67.99840068 111.49775787 71.99859445 109 76 C108.33774414 77.06009277 107.67548828 78.12018555 106.99316406 79.21240234 C105.02864829 82.36561665 103.07533595 85.52550023 101.125 88.6875 C100.52365234 89.64978516 99.92230469 90.61207031 99.30273438 91.60351562 C98.75166016 92.50134766 98.20058594 93.39917969 97.6328125 94.32421875 C97.14699707 95.10885498 96.66118164 95.89349121 96.16064453 96.7019043 C94.85457277 99.28794837 94.15532457 101.09537554 94 104 C95.21365549 106.92372859 95.21365549 106.92372859 97.1640625 109.875 C97.50731064 110.43208649 97.85055878 110.98917297 98.20420837 111.56314087 C99.33083538 113.38431923 100.47763907 115.19182685 101.625 117 C102.41535205 118.26916684 103.20432112 119.53919588 103.99194336 120.81005859 C105.57682641 123.36240262 107.16952182 125.90956724 108.77001953 128.45214844 C111.21468962 132.33637831 113.6260771 136.24071971 116.03417969 140.14770508 C117.58420826 142.66018749 119.14101462 145.16836228 120.69921875 147.67578125 C125.11936064 154.79555402 129.49750949 161.94116499 133.88305664 169.08227539 C137.35023734 174.72006661 140.83423069 180.34652757 144.3515625 185.953125 C145.04781738 187.06324951 145.74407227 188.17337402 146.46142578 189.31713867 C147.79882137 191.44624041 149.13827113 193.5740535 150.47998047 195.70043945 C151.37160889 197.11909302 151.37160889 197.11909302 152.28125 198.56640625 C152.80783203 199.40115479 153.33441406 200.23590332 153.87695312 201.09594727 C155 203 155 203 155 204 C128.64217637 206.64631974 128.64217637 206.64631974 121.80810547 202.75048828 C118.36758087 199.10583686 116.87730916 194.41958253 115.16943359 189.78564453 C112.88939605 184.35449038 109.53255175 179.51630826 106.375 174.5625 C104.99802499 172.33926593 103.62437348 170.1139703 102.25390625 167.88671875 C101.55115731 166.74905441 100.84819332 165.61152289 100.14501953 164.47412109 C97.95542396 160.92954489 95.77195782 157.38121686 93.58984375 153.83203125 C93.22949036 153.2459761 92.86913696 152.65992096 92.49786377 152.05610657 C90.77041681 149.24655108 89.04316406 146.43687624 87.31591797 143.62719727 C86.69217285 142.61326904 86.06842773 141.59934082 85.42578125 140.5546875 C84.84135254 139.60303711 84.25692383 138.65138672 83.65478516 137.67089844 C82.14016332 135.22622997 80.59431467 132.80423985 79.04296875 130.3828125 C77 127 77 127 77 125 C76.34 125 75.68 125 75 125 C74.74734375 125.85851563 74.4946875 126.71703125 74.234375 127.6015625 C72.92417699 131.20875322 71.27187112 134.11416274 69.25 137.375 C68.43462188 138.70606709 67.62093786 140.03817285 66.80859375 141.37109375 C66.36112793 142.10440918 65.91366211 142.83772461 65.45263672 143.59326172 C62.6861626 148.17677465 60.00406364 152.80974222 57.3125 157.4375 C56.72243164 158.45070313 56.13236328 159.46390625 55.52441406 160.5078125 C53.6822466 163.67147033 51.84112354 166.83573456 50 170 C47.50112099 174.29232056 45.00081943 178.58380977 42.5 182.875 C41.93708252 183.84236084 41.37416504 184.80972168 40.79418945 185.80639648 C39.71903317 187.65142171 38.6287059 189.4877062 37.52197266 191.31396484 C35.93955139 193.97863382 35.93955139 193.97863382 34.80224609 196.89306641 C33.46264398 199.86011468 32.4173468 201.80660824 30 204 C24.83029474 205.23128505 19.87322692 204.94761195 14.625 204.625 C13.20718781 204.57479189 11.78920523 204.52917258 10.37109375 204.48828125 C6.91050048 204.37853182 3.45633638 204.20630107 0 204 C5.0479764 194.97649863 10.33982413 186.14255569 15.80419922 177.36523438 C19.84632752 170.87113471 23.84338327 164.35145927 27.8125 157.8125 C32.93446538 149.38106782 38.08221447 140.96592725 43.25 132.5625 C43.92063477 131.46824707 44.59126953 130.37399414 45.28222656 129.24658203 C48.22563548 124.45392238 51.18562518 119.68030768 54.26953125 114.9765625 C54.7480957 114.23978271 55.22666016 113.50300293 55.71972656 112.74389648 C56.58258588 111.42246666 57.45733517 110.10868365 58.34667969 108.80493164 C60.52670319 105.47350771 60.52670319 105.47350771 60.76928711 101.60498047 C59.93312331 98.77354039 58.81400224 96.72756951 57.21875 94.24609375 C56.34005249 92.86284912 56.34005249 92.86284912 55.44360352 91.45166016 C54.80221436 90.4569873 54.1608252 89.46231445 53.5 88.4375 C52.12199742 86.26800626 50.74576436 84.09738778 49.37109375 81.92578125 C48.83415138 81.0796225 48.83415138 81.0796225 48.28636169 80.21636963 C44.28974395 73.9062663 40.42498346 67.51773867 36.5625 61.125 C35.13355706 58.76387164 33.70365983 56.40332232 32.2734375 54.04296875 C31.91974594 53.4591745 31.56605438 52.87538025 31.2016449 52.27389526 C27.38653221 45.98098086 23.54217189 39.70626026 19.6875 33.4375 C18.70535522 31.83962646 18.70535522 31.83962646 17.70336914 30.20947266 C14.61196525 25.19279233 11.49835297 20.19243817 8.33203125 15.22265625 C7.76718018 14.33586182 7.2023291 13.44906738 6.62036133 12.53540039 C5.56866757 10.88980152 4.51275556 9.24688807 3.4519043 7.60717773 C2.99340088 6.89118408 2.53489746 6.17519043 2.0625 5.4375 C1.66160156 4.81746094 1.26070312 4.19742188 0.84765625 3.55859375 C0 2 0 2 0 0 Z " fill="#030303" transform="translate(1442,3032)"/>
<path d="M0 0 C36.3 0 72.6 0 110 0 C110 7.26 110 14.52 110 22 C82.61 22 55.22 22 27 22 C27 44.44 27 66.88 27 90 C51.42 90 75.84 90 101 90 C101 97.26 101 104.52 101 112 C76.58 112 52.16 112 27 112 C27 135.1 27 158.2 27 182 C54.39 182 81.78 182 110 182 C110 189.26 110 196.52 110 204 C73.7 204 37.4 204 0 204 C0 136.68 0 69.36 0 0 Z " fill="#030303" transform="translate(1790,3032)"/>
<path d="M0 0 C36.3 0 72.6 0 110 0 C110 7.26 110 14.52 110 22 C82.61 22 55.22 22 27 22 C27 44.44 27 66.88 27 90 C51.42 90 75.84 90 101 90 C101 97.26 101 104.52 101 112 C76.58 112 52.16 112 27 112 C27 135.1 27 158.2 27 182 C54.39 182 81.78 182 110 182 C110 189.26 110 196.52 110 204 C73.7 204 37.4 204 0 204 C0 136.68 0 69.36 0 0 Z " fill="#030303" transform="translate(1301,3032)"/>
<path d="M0 0 C45.54 0 91.08 0 138 0 C138 7.26 138 14.52 138 22 C119.52 22 101.04 22 82 22 C82 82.06 82 142.12 82 204 C73.42 204 64.84 204 56 204 C56 143.94 56 83.88 56 22 C37.52 22 19.04 22 0 22 C0 14.74 0 7.48 0 0 Z " fill="#020202" transform="translate(1620,3032)"/>
<path d="M0 0 C0.62519531 0.32742187 1.25039062 0.65484375 1.89453125 0.9921875 C9.56478543 5.57094489 13.95817127 14.54034525 16.4921875 22.83203125 C21.20437681 42.94945484 19.86597271 67.17342863 9 85 C6.50230489 88.48657848 4.36446996 90.70414999 0.5625 92.6875 C-0.17871094 93.08324219 -0.91992188 93.47898437 -1.68359375 93.88671875 C-2.44800781 94.25410156 -3.21242188 94.62148437 -4 95 C-4.69867187 95.36996094 -5.39734375 95.73992188 -6.1171875 96.12109375 C-10.60490046 97.48929892 -15.0221831 97.36875041 -19.6875 97.375 C-20.63044922 97.39949219 -21.57339844 97.42398438 -22.54492188 97.44921875 C-31.57415228 97.48645269 -39.70663314 95.09720907 -46.40625 88.82421875 C-58.68538192 74.76942804 -60.06547896 55.22270481 -59.19970703 37.35302734 C-58.12905061 24.73812927 -53.73978918 10.58237029 -44 2 C-31.97728307 -6.06401746 -12.63442873 -7.73954863 0 0 Z " fill="#030303" transform="translate(1734,3319)"/>
<path d="M0 0 C0.63679688 0.33902344 1.27359375 0.67804687 1.9296875 1.02734375 C10.09974291 5.95392223 14.24156762 16.22959961 17 25 C20.82970491 44.7795257 19.61897437 67.57865086 9 85 C4.27612848 91.331998 -1.35516791 94.9282167 -9 97 C-12.49061002 97.40761717 -15.92658668 97.4205634 -19.4375 97.375 C-20.77264648 97.39240234 -20.77264648 97.39240234 -22.13476562 97.41015625 C-31.73243727 97.36809195 -40.11549187 94.91255093 -47 88 C-58.71062951 72.86301396 -60.57922176 53.60701626 -59 35 C-57.29857984 23.07970017 -53.28950893 10.18559868 -44 2 C-31.98228525 -6.06066233 -12.62796745 -7.7454942 0 0 Z " fill="#030303" transform="translate(2234,3319)"/>
<path d="M0 0 C1.11375 0.63615234 1.11375 0.63615234 2.25 1.28515625 C7.49903627 4.74913423 11.09807824 8.96117928 13 15 C14.02753433 22.93838469 13.97706627 30.44483955 9 37 C7.1030152 39.24541058 5.23494742 41.05656746 3 43 C2.34 43 1.68 43 1 43 C1 43.66 1 44.32 1 45 C1.680625 45.165 2.36125 45.33 3.0625 45.5 C8.49688746 48.27500636 12.50841776 53.22906451 14.9375 58.8125 C17.37611201 66.60081711 16.65344988 74.26229691 13.33203125 81.64453125 C7.89362235 91.26142441 0.1626983 96.22776514 -10.30078125 99.234375 C-21.99370161 101.65445144 -33.9164087 100.80427129 -44.33984375 94.609375 C-50.75793 90.06771248 -55.60259261 84.62520504 -58 77 C-58.42239411 74.17373147 -58.47835752 71.41678075 -58.4375 68.5625 C-58.42847656 67.8111377 -58.41945313 67.05977539 -58.41015625 66.28564453 C-58.19284343 59.35427113 -56.9278203 54.99725477 -52.0234375 49.9765625 C-46.61413043 45 -46.61413043 45 -44 45 C-44 44.34 -44 43.68 -44 43 C-44.556875 42.773125 -45.11375 42.54625 -45.6875 42.3125 C-50.2762083 39.70809799 -53.59726213 36.11795111 -55.49609375 31.1484375 C-57.24948599 23.67273415 -56.72752493 15.75518803 -53 9 C-48.94293526 2.66083634 -42.34517863 -1.39294367 -35.13720703 -3.56005859 C-24.2287845 -5.80554379 -9.75365069 -5.59093191 0 0 Z " fill="#030303" transform="translate(2066,3319)"/>
<path d="M0 0 C0.61617187 0.37253906 1.23234375 0.74507812 1.8671875 1.12890625 C6.32987438 4.31495385 9.27403403 8.87351383 11 14 C12.04348224 21.93046506 11.9714063 29.45229414 7 36 C5.1030152 38.24541058 3.23494742 40.05656746 1 42 C0.34 42 -0.32 42 -1 42 C-1 42.66 -1 43.32 -1 44 C-0.319375 44.165 0.36125 44.33 1.0625 44.5 C6.49688746 47.27500636 10.50841776 52.22906451 12.9375 57.8125 C15.37611201 65.60081711 14.65344988 73.26229691 11.33203125 80.64453125 C6.26455 89.6055025 -1.2346929 95.07233397 -11 98 C-22.97862984 100.63529857 -35.66873463 99.93499247 -46.34765625 93.609375 C-52.75750099 89.05658808 -57.6019794 83.62715543 -60 76 C-60.42239411 73.17373147 -60.47835752 70.41678075 -60.4375 67.5625 C-60.42847656 66.8111377 -60.41945313 66.05977539 -60.41015625 65.28564453 C-60.19284343 58.35427113 -58.9278203 53.99725477 -54.0234375 48.9765625 C-48.61413043 44 -48.61413043 44 -46 44 C-46 43.34 -46 42.68 -46 42 C-46.556875 41.773125 -47.11375 41.54625 -47.6875 41.3125 C-52.2762083 38.70809799 -55.59726213 35.11795111 -57.49609375 30.1484375 C-59.24948599 22.67273415 -58.72752493 14.75518803 -55 8 C-50.9445943 1.6634286 -44.3523705 -2.38715989 -37.14868164 -4.55786133 C-25.14256967 -7.02838386 -10.52009782 -6.61629845 0 0 Z " fill="#030303" transform="translate(1648,3320)"/>
<path d="M0 0 C7.486875 -0.061875 14.97375 -0.12375 22.6875 -0.1875 C26.19056763 -0.22846802 26.19056763 -0.22846802 29.7644043 -0.27026367 C44.59680477 -0.37181595 60.42483335 -0.38034516 72.25390625 9.97265625 C80.91742116 19.01908895 82.56096767 27.49646763 82.40283203 39.66845703 C82.03670532 50.68742318 79.32682877 59.89086857 71.18359375 67.75390625 C60.54994906 76.32526833 47.45635293 78.34289556 34.1796875 78.1953125 C32.86786499 78.19229126 32.86786499 78.19229126 31.52954102 78.18920898 C28.31130612 78.17886815 25.09314691 78.15094724 21.875 78.125 C14.65625 78.08375 7.4375 78.0425 0 78 C0 52.26 0 26.52 0 0 Z " fill="#FBFBFB" transform="translate(2445,3054)"/>
<path d="M0 0 C8.37375 -0.061875 16.7475 -0.12375 25.375 -0.1875 C27.99872559 -0.21481201 30.62245117 -0.24212402 33.32568359 -0.27026367 C35.43326356 -0.27903538 37.54084866 -0.28667769 39.6484375 -0.29296875 C40.72005127 -0.30831665 41.79166504 -0.32366455 42.89575195 -0.33947754 C54.24516746 -0.34337947 63.5321092 2.33763406 72.1328125 9.8671875 C79.81470812 17.60577607 82.1682863 26.58635555 82.375 37.3125 C82.01156923 47.92233374 79.16392214 57.83690051 71.8125 65.8125 C62.02227885 74.81695502 50.16333223 76.32433965 37.40234375 76.1953125 C36.44815552 76.19329834 35.49396729 76.19128418 34.51086426 76.18920898 C30.98635978 76.17883744 27.46192446 76.15091573 23.9375 76.125 C16.038125 76.08375 8.13875 76.0425 0 76 C0 50.92 0 25.84 0 0 Z " fill="#FEFEFE" transform="translate(1967,3055)"/>
<path d="M0 0 C8.91 0 17.82 0 27 0 C27 67.32 27 134.64 27 204 C18.09 204 9.18 204 0 204 C0 136.68 0 69.36 0 0 Z " fill="#050505" transform="translate(2117,3032)"/>
<path d="M0 0 C1.29744141 -0.04350586 1.29744141 -0.04350586 2.62109375 -0.08789062 C11.81582933 -0.17749449 18.8823199 3.01667843 25.58203125 9.26171875 C31.0013649 15.46030299 32.35741008 21.17178063 33.375 29.3125 C25.785 29.3125 18.195 29.3125 10.375 29.3125 C9.715 27.3325 9.055 25.3525 8.375 23.3125 C6.24698617 21.14787518 4.95676694 20.41750184 1.97265625 19.87890625 C-2.08281613 19.87265745 -4.90453053 19.9446007 -8.5625 21.8125 C-14.24884884 28.70504405 -14.00950653 35.76791038 -13.625 44.3125 C-13.01011719 43.89097656 -12.39523438 43.46945313 -11.76171875 43.03515625 C-10.95347656 42.48730469 -10.14523438 41.93945312 -9.3125 41.375 C-8.11173828 40.55708984 -8.11173828 40.55708984 -6.88671875 39.72265625 C-0.86426389 35.96772326 6.5408593 36.81009087 13.375 37.3125 C21.61808505 39.36001019 27.10891023 43.06047029 31.625 50.25 C36.75231561 58.79993093 36.48328005 69.60739573 35.375 79.3125 C32.69243851 88.60742707 27.30256382 94.493781 19.34375 99.62109375 C13.54643505 102.57078393 7.68828677 102.68979593 1.3125 102.75 C0.47364258 102.76023193 -0.36521484 102.77046387 -1.22949219 102.78100586 C-10.73628132 102.64788102 -18.70837883 99.95609665 -25.625 93.3125 C-35.49690956 81.81277557 -35.80457887 65.39973993 -35.8125 51.0625 C-35.82474609 49.91136719 -35.83699219 48.76023437 -35.84960938 47.57421875 C-35.87266267 33.9420374 -34.60396689 19.20030377 -24.8125 8.8125 C-17.32494878 1.99145429 -9.87151105 0.10745476 0 0 Z " fill="#030303" transform="translate(2464.625,3314.6875)"/>
<path d="M0 0 C0.85980469 -0.01611328 1.71960937 -0.03222656 2.60546875 -0.04882812 C11.99649615 -0.05595334 18.23487562 2.56618258 25.07421875 9.00390625 C30.69146894 15.32732504 32.07756274 20.93300192 33.125 29.3125 C25.535 29.3125 17.945 29.3125 10.125 29.3125 C9.465 27.3325 8.805 25.3525 8.125 23.3125 C5.99698617 21.14787518 4.70676694 20.41750184 1.72265625 19.87890625 C-2.33281613 19.87265745 -5.15453053 19.9446007 -8.8125 21.8125 C-14.49884884 28.70504405 -14.25950653 35.76791038 -13.875 44.3125 C-13.26011719 43.89097656 -12.64523438 43.46945313 -12.01171875 43.03515625 C-11.20347656 42.48730469 -10.39523438 41.93945312 -9.5625 41.375 C-8.36173828 40.55708984 -8.36173828 40.55708984 -7.13671875 39.72265625 C-1.11426389 35.96772326 6.2908593 36.81009087 13.125 37.3125 C21.36808505 39.36001019 26.85891023 43.06047029 31.375 50.25 C36.50231561 58.79993093 36.23328005 69.60739573 35.125 79.3125 C32.44243851 88.60742707 27.05256382 94.493781 19.09375 99.62109375 C13.29643505 102.57078393 7.43828677 102.68979593 1.0625 102.75 C0.22364258 102.76023193 -0.61521484 102.77046387 -1.47949219 102.78100586 C-11.08688238 102.64647229 -18.79947786 99.87226654 -25.875 93.3125 C-35.68282914 81.32515327 -36.22169718 65.35945885 -36.0625 50.5625 C-36.06185547 49.40878906 -36.06121094 48.25507813 -36.06054688 47.06640625 C-35.98902301 33.12719904 -34.96293642 19.51408755 -24.69921875 8.9609375 C-17.00122479 2.00472026 -10.3392919 -0.03840747 0 0 Z " fill="#030303" transform="translate(2377.875,3314.6875)"/>
<path d="M0 0 C9.71838138 9.48476644 11.92466987 23.13182358 12.203125 36.0703125 C12.21889591 38.07321829 12.2344815 40.07614194 12.24023438 42.07910156 C12.24988085 44.10003791 12.28095742 46.11992858 12.3125 48.140625 C12.36788085 62.29043174 10.50961981 76.92385734 1.18359375 88.1953125 C-6.5862021 95.69826688 -15.8820755 96.57653281 -26.23901367 96.55834961 C-35.40598432 96.22195581 -42.60623667 92.87259275 -49 86.25 C-53.58695786 80.40695587 -56 74.4109819 -56 67 C-48.74 67 -41.48 67 -34 67 C-33.01 68.98 -32.02 70.96 -31 73 C-28.14360289 75.80295101 -26.03137994 76.45107698 -22.0625 76.5 C-18.37088537 76.36951583 -17.16901219 76.11267479 -14 74 C-9.41293731 67.11940596 -9.73564333 59.98944611 -10 52 C-10.680625 52.598125 -11.36125 53.19625 -12.0625 53.8125 C-19.43405628 59.3019568 -25.93017683 59.95017195 -35 59 C-42.92586185 57.12985282 -49.44121991 52.77681494 -54.3125 46.23828125 C-59.56606274 37.64329809 -60.18894299 28.02375566 -58.53515625 18.25390625 C-56.12639868 9.11773108 -51.4932978 2.09114794 -43.33203125 -2.78125 C-29.4865349 -10.01708729 -12.98657452 -8.69367032 0 0 Z " fill="#040404" transform="translate(1561,3321)"/>
<path d="M0 0 C0.92490234 -0.01546875 1.84980469 -0.0309375 2.80273438 -0.046875 C11.13466444 -0.00016481 18.51780796 1.99163486 24.875 7.5625 C31.77648712 15.2980531 33.93432949 23.47042437 33.5390625 33.7265625 C31.05148936 53.42324819 14.99802253 68.75387545 0.0625 80.5 C1.08722412 80.52505615 2.11194824 80.5501123 3.16772461 80.57592773 C6.95659676 80.66984484 10.74527881 80.77010317 14.53393555 80.87231445 C16.17614303 80.91572297 17.81839739 80.95739358 19.46069336 80.99731445 C21.81638745 81.0548744 24.17184428 81.11860892 26.52734375 81.18359375 C27.26589096 81.20030624 28.00443817 81.21701874 28.7653656 81.23423767 C33.94862829 81.38612829 33.94862829 81.38612829 35.0625 82.5 C35.0625 88.77 35.0625 95.04 35.0625 101.5 C11.9625 101.5 -11.1375 101.5 -34.9375 101.5 C-34.9375 83.5 -34.9375 83.5 -32.26171875 79.43359375 C-30.51806641 78.10839844 -30.51806641 78.10839844 -28.625 76.9375 C-27.98997559 76.4724707 -27.35495117 76.00744141 -26.70068359 75.52832031 C-25.41578913 74.58922263 -24.11459819 73.67197736 -22.79736328 72.77880859 C-20.09332599 70.91956111 -17.58831381 68.84241116 -15.0625 66.75 C-14.18335938 66.03199219 -13.30421875 65.31398438 -12.3984375 64.57421875 C-5.36212281 58.64361065 0.08220211 52.23395466 5.0625 44.5 C6.0215625 43.1078125 6.0215625 43.1078125 7 41.6875 C8.73878889 36.47113332 8.95209458 30.92162364 8.0625 25.5 C6.18505626 23.19463788 4.71166077 21.82458039 2.0625 20.5 C-2.57304388 20.08795166 -5.24166098 20.62545854 -8.9375 23.5 C-11.48177398 27.06198358 -11.26891544 29.81990809 -11.9375 34.5 C-19.5275 34.5 -27.1175 34.5 -34.9375 34.5 C-33.83899526 22.41644784 -31.74005696 13.95514762 -22.35546875 6 C-14.92155956 1.3883342 -8.73516863 -0.14548511 0 0 Z " fill="#050505" transform="translate(1961.9375,3314.5)"/>
<path d="M0 0 C5.38479447 3.85733033 9.09757227 9.10521682 11.1875 15.375 C11.82560818 23.02183742 12.12783507 30.13816816 7.1875 36.375 C4.16088604 39.44348412 1.06585226 42.43582387 -2.8125 44.375 C-2.13703125 44.81070313 -1.4615625 45.24640625 -0.765625 45.6953125 C6.33245136 50.43420163 11.23525837 54.75259945 13.1875 63.375 C14.22743591 71.90247443 12.53643088 78.96806177 8.1875 86.375 C3.37337344 92.30993208 -2.6874138 95.02106388 -9.8125 97.375 C-10.8025 97.705 -11.7925 98.035 -12.8125 98.375 C-25.45673936 99.26874114 -37.05910917 98.30964154 -47.203125 89.86328125 C-52.1740163 85.26641333 -55.09233433 79.91711944 -56.8125 73.375 C-56.8125 70.735 -56.8125 68.095 -56.8125 65.375 C-49.2225 65.375 -41.6325 65.375 -33.8125 65.375 C-32.8225 68.84 -32.8225 68.84 -31.8125 72.375 C-30.02263047 75.4985883 -30.02263047 75.4985883 -26.8125 77.375 C-21.97454824 77.99125447 -17.44972897 77.92074299 -12.8125 76.375 C-10.60621111 71.61406083 -10.24168807 67.51230735 -10.8125 62.375 C-13.34703657 59.15545355 -14.92547305 57.67067565 -18.8125 56.375 C-21.03824335 56.15048542 -23.26831519 55.96717122 -25.5 55.8125 C-27.583125 55.668125 -29.66625 55.52375 -31.8125 55.375 C-31.8125 48.775 -31.8125 42.175 -31.8125 35.375 C-29.95625 35.25125 -28.1 35.1275 -26.1875 35 C-19.79466083 34.51353913 -19.79466083 34.51353913 -13.8125 32.375 C-12.76574287 30.70817313 -12.76574287 30.70817313 -12.8125 28.375 C-12.626875 26.4259375 -12.626875 26.4259375 -12.4375 24.4375 C-12.50540386 21.13490305 -12.8512383 20.31501811 -14.75 17.375 C-18.3363159 15.03291615 -20.51377226 14.64178908 -24.7265625 14.88671875 C-27.07825526 15.26093256 -27.07825526 15.26093256 -29.25 17.5625 C-31.04922677 20.66170243 -31.04922677 20.66170243 -32.8125 25.375 C-40.4025 25.375 -47.9925 25.375 -55.8125 25.375 C-54.91259178 15.97595863 -53.56443919 9.23864407 -46.8125 2.375 C-33.26247305 -8.06981244 -14.68610007 -8.81166004 0 0 Z " fill="#040404" transform="translate(1900.8125,3319.625)"/>
<path d="M0 0 C0.66 0 1.32 0 2 0 C2.23866287 0.71820923 2.47732574 1.43641846 2.72322083 2.1763916 C5.50670786 10.55155396 8.29252852 18.92593774 11.08008194 27.29974747 C11.56670253 28.76160136 12.0532726 30.22347208 12.53979111 31.68535995 C18.64747706 50.03712088 24.75507884 68.38761766 31.15356445 86.640625 C31.5424585 87.75566406 31.93135254 88.87070313 32.33203125 90.01953125 C32.65921143 90.94870361 32.9863916 91.87787598 33.32348633 92.83520508 C34 95 34 95 34 97 C12.22 97 -9.56 97 -32 97 C-31.01 94.03 -30.02 91.06 -29 88 C-28.0541631 85.09992161 -27.11110831 82.19908453 -26.171875 79.296875 C-25.62072833 77.59737226 -25.06945291 75.89791127 -24.51806641 74.19848633 C-24.23006165 73.31077545 -23.94205688 72.42306458 -23.64532471 71.50845337 C-15.89447268 47.62844232 -7.97215734 23.80691806 0 0 Z " fill="#FAFAFA" transform="translate(1425,2764)"/>
<path d="M0 0 C21.78 0 43.56 0 66 0 C66 21.82637088 66 21.82637088 62.1171875 30.1953125 C61.50736526 31.62102066 61.50736526 31.62102066 60.88522339 33.07553101 C59.58006431 36.10695098 58.22873887 39.11500809 56.875 42.125 C55.95925929 44.22838156 55.04685587 46.33321902 54.13769531 48.43945312 C52.31735549 52.64468999 50.47979696 56.84164459 48.62597656 61.03222656 C45.21091155 68.76534718 41.93276853 76.5548278 38.65679932 84.34759521 C36.45554419 89.57255732 34.22451432 94.78491345 32 100 C24.08 100 16.16 100 8 100 C10.04319708 93.87040875 12.15591957 88.07270857 14.7734375 82.20703125 C15.13399231 81.38989655 15.49454712 80.57276184 15.86602783 79.73086548 C17.0321217 77.0898186 18.20359511 74.45119488 19.375 71.8125 C20.58894105 69.06584081 21.80136659 66.31851618 23.01364136 63.57112122 C23.82760174 61.72651944 24.64199402 59.88210819 25.45681763 58.03788757 C31.04265186 45.3894403 36.51483775 32.69241033 42 20 C28.14 20 14.28 20 0 20 C0 13.4 0 6.8 0 0 Z " fill="#020203" transform="translate(2263,3317)"/>
<path d="M0 0 C3.77168084 1.57153368 5.94499868 3.47714059 8 7 C10.61066753 13.81461011 10.33132472 20.65383602 10.3125 27.875 C10.32861328 29.10347656 10.34472656 30.33195312 10.36132812 31.59765625 C10.36629914 40.87357892 9.72379089 49.05931263 3 56 C-1.22443487 58.11221744 -6.41050492 57.48658259 -11 57 C-16.07033732 54.55537308 -17.41912425 51.69993173 -19.375 46.5 C-22.61292825 34.60501673 -23.34549393 18.34339066 -18 7 C-13.24547646 -0.46071461 -8.36362905 -0.67780496 0 0 Z " fill="#FBFBFB" transform="translate(1719,3337)"/>
<path d="M0 0 C3.77168084 1.57153368 5.94499868 3.47714059 8 7 C10.61066753 13.81461011 10.33132472 20.65383602 10.3125 27.875 C10.32861328 29.10347656 10.34472656 30.33195312 10.36132812 31.59765625 C10.36629914 40.87357892 9.72379089 49.05931263 3 56 C-1.21263522 58.10631761 -6.42394464 57.51443237 -11 57 C-14.39887908 55.59311388 -16.25424729 53.41456268 -17.984375 50.1328125 C-22.83009551 38.38422599 -22.92255168 21.21018206 -18.9921875 9.17578125 C-14.88087721 0.16003389 -9.25875873 -0.75034803 0 0 Z " fill="#FBFBFB" transform="translate(2219,3337)"/>
<path d="M0 0 C0.66 0.33 1.32 0.66 2 1 C2 1.99 2 2.98 2 4 C-237.91 4 -477.82 4 -725 4 C-724.67 3.01 -724.34 2.02 -724 1 C-485.08 1.33 -246.16 1.66 0 2 C0 1.34 0 0.68 0 0 Z " fill="#C9CFC7" transform="translate(1479,2079)"/>
<path d="M0 0 C0.66 0.33 1.32 0.66 2 1 C2 1.99 2 2.98 2 4 C-205.9 4 -413.8 4 -628 4 C-628 3.34 -628 2.68 -628 2 C-420.76 2 -213.52 2 0 2 C0 1.34 0 0.68 0 0 Z " fill="#C9CFC7" transform="translate(3057,2079)"/>
<path d="M0 0 C20.13 0 40.26 0 61 0 C61 6.6 61 13.2 61 20 C40.87 20 20.74 20 0 20 C0 13.4 0 6.8 0 0 Z " fill="#080809" transform="translate(2096,3359)"/>
<path d="M0 0 C20.13 0 40.26 0 61 0 C61 6.6 61 13.2 61 20 C40.87 20 20.74 20 0 20 C0 13.4 0 6.8 0 0 Z " fill="#080809" transform="translate(1766,3359)"/>
<path d="M0 0 C4.64425866 2.49413891 8.31375022 4.94125067 10 10 C10.53923825 15.71592544 9.63434458 18.55802329 6 23 C2.69740076 25.90228418 0.11842552 26.91559053 -4.3125 27.25 C-9.66430237 26.88716594 -12.71949363 25.41893949 -16.3125 21.4375 C-19.15482042 17.33192606 -19.65292982 13.93835653 -19 9 C-17.20496744 5.34089516 -15.64752442 3.45176122 -12.3125 1.125 C-8.06862764 -0.31631514 -4.43485991 -0.73119554 0 0 Z " fill="#F7F7F7" transform="translate(1629,3373)"/>
<path d="M0 0 C3.86474354 2.45938225 6.28441109 4.35323328 7.75 8.75 C8.28923825 14.46592544 7.38434458 17.30802329 3.75 21.75 C0.44740076 24.65228418 -2.13157448 25.66559053 -6.5625 26 C-11.91430237 25.63716594 -14.96949363 24.16893949 -18.5625 20.1875 C-21.40482042 16.08192606 -21.90292982 12.68835653 -21.25 7.75 C-16.90977417 -1.09738342 -8.83232178 -3.39704684 0 0 Z " fill="#F7F7F7" transform="translate(2051.25,3374.25)"/>
<path d="M0 0 C3.13594153 1.26772104 4.56546548 2.52051364 6.8125 5 C8.98516212 10.48883063 9.02333458 16.54399702 6.75 22 C4.12049063 25.00515357 2.22159443 26.7958338 -1.8046875 27.46875 C-11.11892814 27.56355143 -11.11892814 27.56355143 -14.625 24.8125 C-17.89046239 20.94550507 -18.85593516 18.5847132 -19.3125 13.5625 C-18.84366542 8.21778583 -17.36939825 5.26919838 -13.4375 1.625 C-8.83258891 -0.55186706 -5.01058695 -0.68707045 0 0 Z " fill="#F9F9F9" transform="translate(2383,3370)"/>
<path d="M0 0 C3.45787516 1.21665978 5.38150237 2.34026919 7.875 5 C9.94537375 10.52099667 10.02366496 16.5432041 7.75 22 C5.12049063 25.00515357 3.22159443 26.7958338 -0.8046875 27.46875 C-10.11892814 27.56355143 -10.11892814 27.56355143 -13.625 24.8125 C-16.89046239 20.94550507 -17.85593516 18.5847132 -18.3125 13.5625 C-17.84123865 8.1901206 -16.37373136 5.2428998 -12.375 1.625 C-8.04497755 -0.45982562 -4.72048246 -0.69369097 0 0 Z " fill="#F9F9F9" transform="translate(2469,3370)"/>
<path d="M0 0 C3.23025335 1.627225 5.36088661 3.72177322 7 7 C8.0337258 16.86469767 8.0337258 16.86469767 5.98828125 21.08984375 C3.30338459 24.38750962 0.9357667 25.7667751 -3.26953125 26.2734375 C-10.98442334 26.58155915 -10.98442334 26.58155915 -14.5 23.8125 C-17.88694248 20.00218971 -18.8162314 17.65391741 -19.375 12.625 C-18.89634826 7.99803316 -17.62425273 5.82391112 -15 2 C-10.33020791 -1.11319473 -5.46441192 -0.72810766 0 0 Z " fill="#FAFAFA" transform="translate(1543,3335)"/>
<path d="M0 0 C3.10039543 1.75494081 5.48825667 3.48825667 8 6 C8.71405242 11.1561227 8.8312408 15.61459867 6.125 20.125 C2.17691472 23.60860466 -1.18341877 23.32924245 -6.29296875 23.2890625 C-9.91250576 22.90256071 -11.64739102 21.74471048 -14 19 C-15.35223785 14.94328645 -15.54418363 11.24165046 -15 7 C-11.26462549 0.72990708 -7.14896407 -0.73954801 0 0 Z " fill="#F9F9F9" transform="translate(1628,3333)"/>
<path d="M0 0 C3.70390021 2.02666238 5.65363011 3.48044516 8 7 C8.71207438 11.88516144 8.72852643 15.8100735 6.125 20.0625 C2.20776616 23.63409556 -1.15894908 23.32943487 -6.29296875 23.2890625 C-9.91250576 22.90256071 -11.64739102 21.74471048 -14 19 C-15.35223785 14.94328645 -15.54418363 11.24165046 -15 7 C-11.26462549 0.72990708 -7.14896407 -0.73954801 0 0 Z " fill="#F9F9F9" transform="translate(2048,3333)"/>
</svg>
